<svg id="svg" version="1.1" xmlns="http://www.w3.org/2000/svg" xmlns:xlink="http://www.w3.org/1999/xlink" width="400" height="219.8083067092652" viewBox="0, 0, 400,219.8083067092652"><g id="svgg"><path id="path0" d="M143.925 70.808 C 143.850 70.929,143.498 71.028,143.143 71.028 C 142.787 71.028,142.496 71.127,142.496 71.248 C 142.496 71.369,142.301 71.468,142.063 71.468 C 141.825 71.468,141.277 71.666,140.847 71.908 C 140.416 72.150,139.922 72.347,139.748 72.347 C 139.307 72.347,137.878 73.051,137.878 73.268 C 137.878 73.366,137.695 73.447,137.472 73.447 C 137.249 73.447,136.887 73.645,136.668 73.887 C 136.450 74.129,136.189 74.327,136.088 74.327 C 135.692 74.327,131.941 77.949,131.941 78.332 C 131.941 78.451,131.668 78.810,131.336 79.131 C 131.003 79.452,130.591 79.986,130.419 80.319 C 130.248 80.651,130.025 80.924,129.924 80.924 C 129.824 80.924,129.742 81.072,129.742 81.253 C 129.742 81.435,129.643 81.583,129.522 81.583 C 129.401 81.583,129.302 81.781,129.302 82.023 C 129.302 82.265,129.203 82.463,129.082 82.463 C 128.961 82.463,128.862 82.592,128.862 82.749 C 128.862 83.153,128.345 84.218,128.147 84.220 C 128.057 84.221,127.982 84.464,127.982 84.759 C 127.982 85.054,127.883 85.357,127.763 85.432 C 127.642 85.506,127.543 85.902,127.543 86.311 C 127.543 86.720,127.455 87.109,127.348 87.175 C 127.241 87.241,127.089 87.618,127.011 88.013 C 126.933 88.407,126.754 89.274,126.613 89.940 C 126.276 91.538,126.287 96.743,126.631 98.406 C 126.781 99.131,126.960 100.047,127.028 100.440 C 127.095 100.833,127.239 101.154,127.347 101.154 C 127.454 101.154,127.543 101.502,127.543 101.927 C 127.543 102.352,127.631 102.872,127.739 103.082 C 127.848 103.292,128.268 104.156,128.673 105.003 C 129.078 105.849,129.484 106.575,129.576 106.615 C 129.667 106.656,129.742 106.856,129.742 107.062 C 129.742 107.267,129.940 107.577,130.181 107.752 C 130.423 107.926,130.621 108.205,130.621 108.372 C 130.621 108.538,130.918 108.952,131.281 109.291 C 131.644 109.630,131.941 110.008,131.941 110.130 C 131.941 110.427,135.169 113.338,135.605 113.435 C 135.793 113.476,136.247 113.798,136.615 114.149 C 136.983 114.501,137.516 114.788,137.801 114.788 C 138.085 114.788,138.318 114.887,138.318 115.008 C 138.318 115.129,138.470 115.228,138.657 115.228 C 138.843 115.228,139.208 115.426,139.468 115.668 C 139.728 115.910,140.169 116.108,140.448 116.108 C 140.728 116.108,140.957 116.207,140.957 116.328 C 140.957 116.449,141.297 116.548,141.713 116.548 C 142.129 116.548,142.531 116.647,142.606 116.767 C 142.681 116.888,143.013 116.987,143.344 116.987 C 143.676 116.987,144.041 117.076,144.156 117.185 C 144.908 117.895,154.602 117.896,155.349 117.186 C 155.464 117.077,155.829 116.987,156.161 116.987 C 156.492 116.987,156.825 116.888,156.899 116.767 C 156.974 116.647,157.370 116.548,157.779 116.548 C 158.188 116.548,158.584 116.449,158.659 116.328 C 158.733 116.207,159.036 116.108,159.331 116.108 C 159.627 116.108,159.868 116.009,159.868 115.888 C 159.868 115.767,160.066 115.668,160.308 115.668 C 160.550 115.668,160.748 115.594,160.749 115.503 C 160.752 115.280,161.839 114.788,162.331 114.788 C 162.549 114.788,162.727 114.689,162.727 114.568 C 162.727 114.447,162.875 114.349,163.057 114.349 C 163.238 114.349,163.386 114.273,163.386 114.181 C 163.386 114.088,163.762 113.850,164.221 113.651 C 164.681 113.452,165.384 112.983,165.784 112.609 C 166.184 112.236,166.641 111.930,166.800 111.930 C 166.958 111.930,167.219 111.633,167.380 111.270 C 167.541 110.907,167.747 110.610,167.838 110.610 C 167.930 110.610,168.004 110.319,168.004 109.964 C 168.004 109.608,168.103 109.256,168.224 109.181 C 168.364 109.095,168.444 106.434,168.444 101.924 C 168.444 97.414,168.364 94.753,168.224 94.667 C 168.103 94.593,168.004 94.315,168.004 94.050 C 168.004 93.465,167.097 92.358,166.617 92.358 C 166.427 92.358,166.210 92.259,166.135 92.139 C 165.834 91.652,150.118 91.861,149.583 92.358 C 149.324 92.600,148.975 92.798,148.808 92.798 C 147.770 92.798,147.710 95.513,148.724 96.619 L 149.454 97.416 155.980 97.416 L 162.507 97.416 162.507 102.484 L 162.507 107.553 161.902 108.093 C 161.570 108.391,160.976 108.793,160.583 108.987 C 160.190 109.182,159.868 109.429,159.868 109.536 C 159.868 109.643,159.720 109.731,159.538 109.731 C 159.357 109.731,159.208 109.830,159.208 109.951 C 159.208 110.071,158.911 110.170,158.549 110.170 C 158.186 110.170,157.889 110.269,157.889 110.390 C 157.889 110.511,157.691 110.610,157.449 110.610 C 157.207 110.610,157.009 110.709,157.009 110.830 C 157.009 110.951,156.712 111.050,156.350 111.050 C 155.987 111.050,155.690 111.149,155.690 111.270 C 155.690 111.391,155.443 111.490,155.140 111.490 C 154.838 111.490,154.590 111.589,154.590 111.710 C 154.590 112.009,145.429 112.009,145.245 111.710 C 145.170 111.589,144.867 111.490,144.572 111.490 C 144.277 111.490,144.035 111.391,144.035 111.270 C 144.035 111.149,143.890 111.050,143.712 111.050 C 143.534 111.050,143.036 110.852,142.606 110.610 C 142.175 110.368,141.723 110.170,141.600 110.170 C 141.478 110.170,141.166 109.973,140.906 109.731 C 140.646 109.489,140.304 109.291,140.145 109.291 C 139.987 109.291,139.857 109.207,139.857 109.105 C 139.857 109.002,139.668 108.829,139.438 108.720 C 138.843 108.438,136.559 106.281,136.559 106.002 C 136.559 105.873,136.262 105.458,135.899 105.078 C 135.536 104.698,135.239 104.245,135.239 104.070 C 135.239 103.894,135.057 103.489,134.834 103.168 C 134.611 102.847,134.290 102.262,134.120 101.869 C 133.951 101.476,133.738 101.154,133.646 101.154 C 133.555 101.154,133.480 100.666,133.480 100.068 C 133.480 99.470,133.381 98.920,133.260 98.846 C 133.139 98.771,133.040 98.369,133.040 97.953 C 133.040 97.537,132.941 97.196,132.820 97.196 C 132.684 97.196,132.600 96.023,132.600 94.118 C 132.600 92.212,132.684 91.039,132.820 91.039 C 132.941 91.039,133.040 90.643,133.040 90.159 C 133.040 89.676,133.139 89.280,133.260 89.280 C 133.381 89.280,133.480 88.785,133.480 88.180 C 133.480 87.576,133.579 87.081,133.700 87.081 C 133.821 87.081,133.920 86.883,133.920 86.641 C 133.920 86.399,134.007 86.201,134.114 86.201 C 134.221 86.201,134.365 86.028,134.434 85.816 C 134.594 85.328,135.678 83.488,135.892 83.342 C 135.980 83.282,136.171 83.008,136.316 82.734 C 136.672 82.058,139.404 79.202,140.006 78.876 C 142.039 77.777,143.768 76.965,144.079 76.965 C 144.283 76.965,144.504 76.877,144.571 76.769 C 144.866 76.290,152.831 75.833,152.831 76.294 C 152.831 76.422,153.146 76.526,153.530 76.526 C 154.776 76.526,160.088 78.695,160.088 79.203 C 160.088 79.303,160.236 79.384,160.418 79.384 C 160.599 79.384,160.748 79.483,160.748 79.604 C 160.748 79.725,160.896 79.824,161.078 79.824 C 161.259 79.824,161.407 79.923,161.407 80.044 C 161.407 80.165,161.556 80.264,161.737 80.264 C 161.919 80.264,162.067 80.363,162.067 80.484 C 162.067 80.605,162.611 80.704,163.277 80.704 C 163.942 80.704,164.486 80.605,164.486 80.484 C 164.486 80.363,164.589 80.264,164.715 80.264 C 166.142 80.264,166.702 76.605,165.453 75.447 C 164.498 74.561,162.804 73.447,162.412 73.447 C 162.222 73.447,162.067 73.366,162.067 73.268 C 162.067 73.025,160.615 72.347,160.093 72.347 C 159.863 72.347,159.613 72.248,159.538 72.128 C 159.463 72.007,159.210 71.908,158.975 71.908 C 158.741 71.908,158.549 71.809,158.549 71.688 C 158.549 71.567,158.307 71.468,158.012 71.468 C 157.717 71.468,157.414 71.369,157.339 71.248 C 157.264 71.127,156.863 71.028,156.447 71.028 C 156.030 71.028,155.690 70.929,155.690 70.808 C 155.690 70.667,153.605 70.588,149.876 70.588 C 146.236 70.588,144.010 70.671,143.925 70.808 M180.099 70.808 C 180.099 70.929,179.946 71.028,179.759 71.028 C 179.389 71.028,178.610 71.762,178.175 72.522 C 177.823 73.136,177.769 100.715,178.120 100.715 C 178.241 100.715,178.340 101.259,178.340 101.924 C 178.340 102.589,178.439 103.134,178.560 103.134 C 178.681 103.134,178.780 103.628,178.780 104.233 C 178.780 104.838,178.879 105.333,178.999 105.333 C 179.120 105.333,179.219 105.629,179.219 105.992 C 179.219 106.355,179.318 106.652,179.439 106.652 C 179.560 106.652,179.659 106.784,179.659 106.946 C 179.659 107.408,181.103 110.229,181.615 110.766 C 181.870 111.033,182.078 111.348,182.078 111.466 C 182.078 111.584,182.276 111.743,182.518 111.820 C 182.760 111.896,182.958 112.027,182.958 112.109 C 182.958 112.391,183.998 113.469,184.269 113.469 C 184.418 113.469,184.818 113.766,185.157 114.129 C 185.496 114.491,185.931 114.788,186.125 114.788 C 186.318 114.788,186.476 114.869,186.476 114.967 C 186.476 115.066,186.822 115.282,187.246 115.448 C 187.669 115.614,188.015 115.831,188.015 115.929 C 188.015 116.027,188.207 116.108,188.442 116.108 C 188.677 116.108,188.930 116.207,189.005 116.328 C 189.080 116.449,189.481 116.548,189.898 116.548 C 190.314 116.548,190.654 116.647,190.654 116.767 C 190.654 116.888,190.951 116.987,191.314 116.987 C 191.677 116.987,191.974 117.077,191.974 117.187 C 191.974 117.609,199.347 118.058,199.744 117.661 C 199.873 117.532,200.447 117.427,201.021 117.427 C 201.594 117.427,202.124 117.328,202.199 117.207 C 202.274 117.086,202.620 116.987,202.969 116.987 C 203.317 116.987,203.664 116.888,203.738 116.767 C 203.813 116.647,204.117 116.548,204.414 116.548 C 204.711 116.548,205.126 116.460,205.336 116.353 C 205.546 116.246,206.014 116.024,206.377 115.860 C 206.740 115.696,207.197 115.387,207.392 115.175 C 207.588 114.962,207.910 114.788,208.107 114.788 C 208.305 114.788,208.466 114.689,208.466 114.568 C 208.466 114.447,208.618 114.349,208.804 114.349 C 209.461 114.349,212.352 111.417,213.090 110.002 C 213.389 109.430,213.683 108.911,213.744 108.851 C 214.068 108.527,214.404 107.690,214.404 107.205 C 214.404 106.901,214.502 106.652,214.623 106.652 C 214.744 106.652,214.843 106.454,214.843 106.212 C 214.843 105.970,214.942 105.772,215.063 105.772 C 215.184 105.772,215.283 105.531,215.283 105.236 C 215.283 104.940,215.382 104.638,215.503 104.563 C 215.624 104.488,215.723 103.796,215.723 103.024 C 215.723 102.252,215.822 101.559,215.943 101.484 C 216.086 101.396,216.163 96.278,216.163 86.848 C 216.163 77.328,216.087 72.347,215.943 72.347 C 215.822 72.347,215.723 72.192,215.723 72.002 C 215.723 71.557,215.194 71.028,214.749 71.028 C 214.559 71.028,214.404 70.929,214.404 70.808 C 214.404 69.983,212.059 70.720,210.944 71.896 L 210.225 72.653 210.225 86.451 C 210.225 95.412,210.148 100.297,210.005 100.385 C 209.885 100.460,209.786 101.158,209.786 101.937 C 209.786 102.735,209.690 103.353,209.566 103.353 C 209.445 103.353,209.346 103.478,209.346 103.629 C 209.346 104.077,207.884 106.941,207.386 107.467 C 207.133 107.735,206.927 108.014,206.927 108.088 C 206.927 108.283,206.490 108.666,205.554 109.291 C 205.101 109.593,204.730 109.915,204.729 110.005 C 204.729 110.096,204.530 110.170,204.288 110.170 C 204.046 110.170,203.848 110.269,203.848 110.390 C 203.848 110.511,203.650 110.610,203.408 110.610 C 203.167 110.610,202.969 110.709,202.969 110.830 C 202.969 110.951,202.771 111.050,202.529 111.050 C 202.287 111.050,202.089 111.149,202.089 111.270 C 202.089 111.391,201.842 111.490,201.539 111.490 C 201.237 111.490,200.990 111.589,200.990 111.710 C 200.990 111.848,199.597 111.930,197.251 111.930 C 194.906 111.930,193.513 111.848,193.513 111.710 C 193.513 111.589,193.266 111.490,192.963 111.490 C 192.661 111.490,192.413 111.391,192.413 111.270 C 192.413 111.149,192.216 111.050,191.974 111.050 C 191.732 111.050,191.534 110.951,191.534 110.830 C 191.534 110.709,191.336 110.610,191.094 110.610 C 190.852 110.610,190.654 110.511,190.654 110.390 C 190.654 110.269,190.505 110.170,190.322 110.170 C 190.140 110.170,189.680 109.874,189.300 109.511 C 188.921 109.148,188.476 108.851,188.313 108.851 C 188.149 108.851,188.015 108.767,188.015 108.664 C 188.015 108.561,187.734 108.182,187.390 107.822 C 187.046 107.462,186.477 106.631,186.126 105.975 C 185.774 105.319,185.412 104.750,185.322 104.710 C 185.231 104.669,185.157 104.304,185.157 103.898 C 185.157 103.492,185.058 103.098,184.937 103.024 C 184.816 102.949,184.717 102.603,184.717 102.254 C 184.717 101.905,184.618 101.559,184.497 101.484 C 184.376 101.410,184.277 100.816,184.277 100.165 C 184.277 99.514,184.178 98.920,184.057 98.846 C 183.915 98.757,183.837 94.060,183.837 85.474 L 183.837 72.237 183.317 71.633 C 183.031 71.300,182.641 71.028,182.450 71.028 C 182.260 71.028,182.043 70.929,181.968 70.808 C 181.893 70.687,181.442 70.588,180.966 70.588 C 180.489 70.588,180.099 70.687,180.099 70.808 M225.935 70.984 C 225.700 71.202,225.335 71.446,225.124 71.527 C 224.912 71.608,224.739 71.825,224.739 72.011 C 224.739 72.196,224.640 72.347,224.519 72.347 C 224.393 72.347,224.299 73.003,224.299 73.874 C 224.299 74.713,224.398 75.461,224.519 75.536 C 224.640 75.611,224.739 75.864,224.739 76.099 C 224.739 76.333,224.819 76.526,224.918 76.526 C 225.016 76.526,225.232 76.872,225.399 77.295 C 225.565 77.719,225.781 78.065,225.879 78.065 C 225.978 78.065,226.058 78.362,226.058 78.725 C 226.058 79.087,226.157 79.384,226.278 79.384 C 226.399 79.384,226.498 79.582,226.498 79.824 C 226.498 80.066,226.597 80.264,226.718 80.264 C 226.839 80.264,226.938 80.456,226.938 80.691 C 226.938 80.925,227.037 81.179,227.158 81.253 C 227.279 81.328,227.380 81.606,227.383 81.871 C 227.385 82.136,227.732 82.992,228.152 83.772 C 228.573 84.553,228.917 85.418,228.917 85.696 C 228.917 85.974,229.016 86.201,229.137 86.201 C 229.258 86.201,229.357 86.399,229.357 86.641 C 229.357 86.883,229.456 87.081,229.577 87.081 C 229.698 87.081,229.797 87.279,229.797 87.521 C 229.797 87.763,229.896 87.960,230.016 87.960 C 230.137 87.960,230.236 88.257,230.236 88.620 C 230.236 88.983,230.335 89.280,230.456 89.280 C 230.577 89.280,230.676 89.478,230.676 89.720 C 230.676 89.962,230.775 90.159,230.896 90.159 C 231.017 90.159,231.116 90.357,231.116 90.599 C 231.116 90.841,231.215 91.039,231.336 91.039 C 231.457 91.039,231.556 91.286,231.556 91.589 C 231.556 91.891,231.655 92.139,231.776 92.139 C 231.897 92.139,231.996 92.336,231.996 92.578 C 231.996 92.820,232.095 93.018,232.216 93.018 C 232.336 93.018,232.435 93.216,232.435 93.458 C 232.435 93.700,232.534 93.898,232.655 93.898 C 232.776 93.898,232.875 94.096,232.875 94.338 C 232.875 94.579,232.974 94.777,233.095 94.777 C 233.216 94.777,233.315 95.074,233.315 95.437 C 233.315 95.800,233.414 96.097,233.535 96.097 C 233.656 96.097,233.755 96.227,233.755 96.385 C 233.755 96.544,233.955 97.089,234.200 97.596 C 234.445 98.103,234.705 98.815,234.778 99.177 C 234.850 99.539,234.996 99.835,235.102 99.835 C 235.208 99.835,235.294 100.033,235.294 100.275 C 235.294 100.517,235.393 100.715,235.514 100.715 C 235.635 100.715,235.734 100.913,235.734 101.154 C 235.734 101.396,235.833 101.594,235.954 101.594 C 236.075 101.594,236.174 101.891,236.174 102.254 C 236.174 102.617,236.273 102.914,236.394 102.914 C 236.515 102.914,236.614 103.112,236.614 103.353 C 236.614 103.595,236.712 103.793,236.833 103.793 C 236.954 103.793,237.053 103.991,237.053 104.233 C 237.053 104.475,237.152 104.673,237.273 104.673 C 237.394 104.673,237.493 104.839,237.493 105.042 C 237.493 105.539,238.405 107.532,238.632 107.532 C 238.731 107.532,238.813 107.730,238.813 107.971 C 238.813 108.213,238.911 108.411,239.032 108.411 C 239.153 108.411,239.252 108.758,239.252 109.181 C 239.252 109.604,239.351 109.951,239.472 109.951 C 239.593 109.951,239.692 110.099,239.692 110.280 C 239.692 110.462,239.791 110.610,239.912 110.610 C 240.033 110.610,240.132 110.802,240.132 111.037 C 240.132 111.272,240.231 111.525,240.352 111.600 C 240.473 111.675,240.572 111.913,240.572 112.129 C 240.572 112.345,240.708 112.809,240.874 113.160 C 241.041 113.511,241.312 114.120,241.478 114.513 C 241.643 114.907,241.853 115.228,241.945 115.228 C 242.036 115.228,242.110 115.401,242.110 115.613 C 242.106 116.574,243.642 117.427,245.374 117.427 L 246.992 117.427 247.960 116.403 C 248.492 115.839,248.928 115.245,248.928 115.083 C 248.928 114.921,249.027 114.788,249.148 114.788 C 249.269 114.788,249.368 114.589,249.368 114.346 C 249.368 114.102,249.460 113.731,249.573 113.521 C 249.686 113.311,249.908 112.817,250.067 112.424 C 250.225 112.031,250.430 111.710,250.521 111.710 C 250.612 111.710,250.687 111.518,250.687 111.283 C 250.687 111.048,250.786 110.795,250.907 110.720 C 251.028 110.645,251.127 110.293,251.127 109.938 C 251.127 109.582,251.208 109.291,251.308 109.291 C 251.518 109.291,252.444 107.320,252.451 106.857 C 252.454 106.684,252.650 106.295,252.886 105.992 C 253.123 105.690,253.318 105.337,253.321 105.209 C 253.324 105.081,253.512 104.586,253.740 104.109 C 253.968 103.633,254.228 102.897,254.317 102.474 C 254.407 102.051,254.543 101.655,254.618 101.594 C 254.912 101.359,255.305 100.479,255.305 100.058 C 255.305 99.814,255.404 99.615,255.525 99.615 C 255.646 99.615,255.745 99.417,255.745 99.175 C 255.745 98.933,255.844 98.736,255.965 98.736 C 256.086 98.736,256.185 98.538,256.185 98.296 C 256.185 98.054,256.284 97.856,256.405 97.856 C 256.526 97.856,256.625 97.658,256.625 97.416 C 256.625 97.174,256.723 96.976,256.844 96.976 C 256.965 96.976,257.064 96.679,257.064 96.317 C 257.064 95.954,257.163 95.657,257.284 95.657 C 257.405 95.657,257.504 95.459,257.504 95.217 C 257.504 94.975,257.603 94.777,257.724 94.777 C 257.845 94.777,257.944 94.579,257.944 94.338 C 257.944 94.096,258.043 93.898,258.164 93.898 C 258.285 93.898,258.384 93.714,258.384 93.489 C 258.384 93.264,258.694 92.448,259.072 91.675 C 259.451 90.902,259.832 90.071,259.918 89.830 C 260.005 89.588,260.338 88.836,260.659 88.158 C 260.980 87.481,261.242 86.665,261.242 86.344 C 261.242 86.024,261.341 85.761,261.462 85.761 C 261.583 85.761,261.682 85.613,261.682 85.432 C 261.682 85.250,261.781 85.102,261.902 85.102 C 262.023 85.102,262.122 84.904,262.122 84.662 C 262.122 84.420,262.221 84.222,262.342 84.222 C 262.463 84.222,262.562 84.030,262.562 83.795 C 262.562 83.561,262.661 83.307,262.782 83.233 C 262.903 83.158,263.002 82.855,263.002 82.560 C 263.002 82.265,263.101 82.023,263.222 82.023 C 263.342 82.023,263.441 81.825,263.441 81.583 C 263.441 81.341,263.540 81.143,263.661 81.143 C 263.782 81.143,263.881 80.946,263.881 80.704 C 263.881 80.462,263.980 80.264,264.101 80.264 C 264.222 80.264,264.321 79.967,264.321 79.604 C 264.321 79.241,264.420 78.944,264.541 78.944 C 264.662 78.944,264.761 78.747,264.761 78.505 C 264.761 78.263,264.835 78.064,264.926 78.063 C 265.136 78.061,265.640 76.985,265.641 76.537 C 265.642 76.349,265.840 75.872,266.081 75.476 C 266.664 74.520,266.686 72.656,266.120 72.153 C 265.900 71.958,265.656 71.625,265.577 71.413 C 265.499 71.201,265.233 71.028,264.988 71.028 C 264.742 71.028,264.541 70.929,264.541 70.808 C 264.541 70.687,264.096 70.588,263.551 70.588 C 263.007 70.588,262.562 70.687,262.562 70.808 C 262.562 70.929,262.386 71.028,262.171 71.028 C 261.955 71.028,261.634 71.238,261.456 71.495 C 261.278 71.751,261.034 72.073,260.913 72.209 C 260.502 72.673,259.703 74.366,259.703 74.774 C 259.703 74.997,259.604 75.241,259.483 75.316 C 259.362 75.391,259.261 75.619,259.258 75.824 C 259.256 76.028,259.060 76.443,258.824 76.745 C 258.587 77.048,258.391 77.518,258.389 77.790 C 258.386 78.062,258.285 78.285,258.164 78.285 C 258.043 78.285,257.944 78.473,257.944 78.702 C 257.944 78.932,257.647 79.684,257.284 80.374 C 256.921 81.064,256.625 81.763,256.625 81.929 C 256.625 82.094,256.441 82.556,256.217 82.955 C 255.993 83.354,255.587 84.322,255.314 85.106 C 255.041 85.890,254.680 86.750,254.512 87.018 C 254.343 87.286,254.206 87.707,254.206 87.953 C 254.206 88.199,254.107 88.400,253.986 88.400 C 253.865 88.400,253.766 88.697,253.766 89.060 C 253.766 89.423,253.667 89.720,253.546 89.720 C 253.425 89.720,253.326 89.918,253.326 90.159 C 253.326 90.401,253.227 90.599,253.106 90.599 C 252.985 90.599,252.886 90.797,252.886 91.039 C 252.886 91.281,252.787 91.479,252.666 91.479 C 252.545 91.479,252.446 91.776,252.446 92.139 C 252.446 92.501,252.347 92.798,252.226 92.798 C 252.106 92.798,252.007 92.996,252.007 93.238 C 252.007 93.480,251.932 93.678,251.840 93.678 C 251.749 93.678,251.545 93.999,251.386 94.393 C 251.228 94.786,251.006 95.279,250.893 95.489 C 250.780 95.699,250.687 96.077,250.687 96.329 C 250.687 96.582,250.534 96.941,250.347 97.129 C 250.159 97.316,249.949 97.754,249.879 98.102 C 249.810 98.451,249.666 98.736,249.560 98.736 C 249.454 98.736,249.368 99.024,249.368 99.377 C 249.368 99.730,249.289 100.051,249.192 100.092 C 248.947 100.194,248.058 102.153,247.901 102.934 C 247.830 103.291,247.685 103.636,247.580 103.701 C 247.475 103.766,247.389 104.011,247.389 104.246 C 247.389 104.481,247.290 104.673,247.169 104.673 C 247.048 104.673,246.949 104.865,246.949 105.100 C 246.949 105.334,246.850 105.588,246.729 105.662 C 246.608 105.737,246.509 106.089,246.509 106.445 C 246.509 106.801,246.435 107.093,246.344 107.094 C 246.147 107.096,245.629 108.160,245.629 108.565 C 245.629 108.722,245.531 108.851,245.410 108.851 C 245.289 108.851,245.190 108.662,245.190 108.432 C 245.190 107.983,244.309 106.151,244.035 106.029 C 243.944 105.989,243.870 105.715,243.870 105.421 C 243.870 105.127,243.778 104.715,243.665 104.505 C 243.552 104.295,243.330 103.802,243.171 103.408 C 243.013 103.015,242.808 102.694,242.717 102.694 C 242.626 102.694,242.551 102.502,242.551 102.267 C 242.551 102.032,242.452 101.779,242.331 101.704 C 242.210 101.629,242.111 101.327,242.111 101.032 C 242.111 100.736,242.012 100.495,241.891 100.495 C 241.770 100.495,241.671 100.297,241.671 100.055 C 241.671 99.813,241.572 99.615,241.451 99.615 C 241.330 99.615,241.231 99.417,241.231 99.175 C 241.231 98.933,241.132 98.736,241.012 98.736 C 240.891 98.736,240.792 98.455,240.792 98.113 C 240.792 97.771,240.545 97.004,240.243 96.409 C 239.941 95.814,239.694 95.203,239.693 95.052 C 239.693 94.901,239.593 94.777,239.472 94.777 C 239.351 94.777,239.252 94.533,239.252 94.234 C 239.252 93.936,239.054 93.339,238.813 92.908 C 238.571 92.478,238.373 91.980,238.373 91.802 C 238.373 91.624,238.274 91.479,238.153 91.479 C 238.032 91.479,237.933 91.182,237.933 90.819 C 237.933 90.456,237.834 90.159,237.713 90.159 C 237.592 90.159,237.493 89.962,237.493 89.720 C 237.493 89.478,237.394 89.280,237.273 89.280 C 237.152 89.280,237.053 89.082,237.053 88.840 C 237.053 88.598,236.954 88.400,236.833 88.400 C 236.712 88.400,236.614 88.159,236.614 87.863 C 236.614 87.568,236.515 87.266,236.394 87.191 C 236.273 87.116,236.174 86.881,236.174 86.669 C 236.174 86.458,235.976 86.072,235.734 85.812 C 235.492 85.552,235.294 85.144,235.294 84.904 C 235.294 84.664,235.195 84.407,235.074 84.332 C 234.953 84.257,234.854 83.905,234.854 83.549 C 234.854 83.194,234.755 82.903,234.634 82.903 C 234.513 82.903,234.415 82.705,234.415 82.463 C 234.415 82.221,234.328 82.023,234.222 82.023 C 234.116 82.023,233.970 81.727,233.898 81.365 C 233.826 81.003,233.566 80.291,233.321 79.784 C 233.076 79.277,232.875 78.732,232.875 78.573 C 232.875 78.415,232.776 78.285,232.655 78.285 C 232.534 78.285,232.435 78.087,232.435 77.845 C 232.435 77.603,232.336 77.405,232.216 77.405 C 232.095 77.405,231.995 77.133,231.995 76.800 C 231.994 76.468,231.796 75.872,231.555 75.476 C 231.314 75.080,231.116 74.610,231.116 74.431 C 231.116 74.253,231.017 74.107,230.896 74.107 C 230.775 74.107,230.676 73.832,230.676 73.495 C 230.676 73.137,230.495 72.753,230.236 72.567 C 229.995 72.393,229.797 72.121,229.797 71.962 C 229.797 71.804,229.623 71.608,229.412 71.527 C 229.200 71.446,228.835 71.202,228.601 70.984 C 228.333 70.736,227.836 70.588,227.268 70.588 C 226.699 70.588,226.202 70.736,225.935 70.984 M277.515 70.808 C 277.515 70.929,277.362 71.028,277.175 71.028 C 276.988 71.028,276.568 71.296,276.241 71.623 L 275.646 72.218 275.646 94.013 C 275.646 118.268,275.499 116.040,277.165 116.976 C 278.646 117.808,281.253 116.922,281.253 115.587 C 281.253 115.404,281.352 115.193,281.473 115.118 C 281.764 114.939,281.779 72.787,281.488 72.787 C 281.375 72.787,281.224 72.601,281.152 72.374 C 280.753 71.118,277.515 69.724,277.515 70.808 M174.766 140.564 C 174.153 141.332,174.177 161.325,174.792 162.033 C 175.412 162.748,176.708 162.682,177.379 161.902 C 177.892 161.306,177.899 161.227,177.900 156.494 C 177.900 151.363,178.317 149.753,179.643 149.753 C 179.773 149.753,179.879 149.654,179.879 149.533 C 179.879 149.412,180.176 149.313,180.539 149.313 C 180.902 149.313,181.198 149.214,181.198 149.093 C 181.198 148.972,181.396 148.873,181.638 148.873 C 181.880 148.873,182.078 148.972,182.078 149.093 C 182.078 149.214,182.322 149.313,182.620 149.313 C 183.264 149.313,184.717 150.569,184.717 151.125 C 184.717 151.338,184.816 151.512,184.937 151.512 C 185.077 151.512,185.157 153.311,185.157 156.470 L 185.157 161.427 185.696 161.967 C 186.400 162.671,187.778 162.732,187.952 162.067 C 188.015 161.825,188.154 161.627,188.261 161.627 C 188.537 161.627,188.512 150.913,188.235 150.742 C 188.114 150.667,188.015 150.266,188.015 149.850 C 188.015 149.433,187.916 149.093,187.795 149.093 C 187.675 149.093,187.576 148.987,187.576 148.857 C 187.576 148.728,187.427 148.473,187.246 148.292 C 187.064 148.110,186.916 148.043,186.915 148.143 C 186.915 148.242,186.718 148.002,186.478 147.609 C 186.226 147.194,185.862 146.894,185.613 146.894 C 185.376 146.894,185.121 146.795,185.047 146.674 C 184.972 146.553,184.675 146.454,184.387 146.454 C 184.099 146.454,183.802 146.355,183.727 146.234 C 183.653 146.113,183.009 146.014,182.298 146.014 C 181.587 146.014,180.943 146.113,180.869 146.234 C 180.794 146.355,180.491 146.454,180.196 146.454 C 179.901 146.454,179.659 146.553,179.659 146.674 C 179.659 146.795,179.432 146.894,179.153 146.894 C 178.875 146.894,178.531 147.011,178.387 147.154 C 177.964 147.577,177.922 147.344,177.887 144.357 C 177.845 140.764,177.540 140.075,175.992 140.080 C 175.393 140.082,175.040 140.221,174.766 140.564 M213.359 140.632 C 212.889 141.134,212.864 141.336,212.864 144.611 C 212.864 147.940,212.850 148.049,212.462 147.698 C 212.241 147.497,211.944 147.334,211.802 147.334 C 211.661 147.334,211.545 147.235,211.545 147.114 C 211.545 146.993,211.353 146.894,211.118 146.894 C 210.883 146.894,210.630 146.795,210.555 146.674 C 210.481 146.553,210.184 146.454,209.896 146.454 C 209.607 146.454,209.311 146.355,209.236 146.234 C 209.161 146.113,208.512 146.014,207.794 146.014 C 207.069 146.014,206.487 146.112,206.487 146.234 C 206.487 146.355,206.190 146.454,205.827 146.454 C 205.465 146.454,205.168 146.553,205.168 146.674 C 205.168 146.795,204.871 146.894,204.508 146.894 C 204.145 146.894,203.848 146.993,203.848 147.114 C 203.848 147.235,203.700 147.334,203.518 147.334 C 203.337 147.334,203.189 147.433,203.189 147.554 C 203.189 147.675,203.040 147.774,202.859 147.774 C 202.677 147.774,202.529 147.898,202.529 148.050 C 202.529 148.203,202.338 148.447,202.104 148.593 C 200.544 149.567,199.609 154.407,200.450 157.158 C 201.146 159.436,202.803 161.627,203.829 161.627 C 204.081 161.627,204.288 161.726,204.288 161.847 C 204.288 161.968,204.530 162.067,204.825 162.067 C 205.120 162.067,205.423 162.166,205.498 162.287 C 205.654 162.540,210.224 162.593,210.227 162.342 C 210.229 162.171,211.272 161.627,211.598 161.627 C 211.700 161.627,212.002 161.423,212.269 161.173 C 212.707 160.763,212.762 160.756,212.832 161.096 C 213.080 162.303,215.390 163.097,215.659 162.067 C 215.722 161.825,215.862 161.627,215.968 161.627 C 216.078 161.627,216.163 157.126,216.163 151.292 C 216.163 145.458,216.078 140.957,215.968 140.957 C 215.862 140.957,215.722 140.759,215.659 140.517 C 215.486 139.855,214.017 139.929,213.359 140.632 M130.838 141.927 C 130.719 142.046,130.621 142.273,130.621 142.430 C 130.621 142.587,130.522 142.716,130.401 142.716 C 130.272 142.716,130.181 143.485,130.181 144.585 L 130.181 146.454 129.522 146.454 C 129.159 146.454,128.862 146.553,128.862 146.674 C 128.862 146.795,128.664 146.894,128.422 146.894 C 128.054 146.894,127.982 147.040,127.982 147.789 C 127.982 148.891,128.373 149.313,129.396 149.313 L 130.181 149.313 130.181 154.138 C 130.181 157.117,130.266 159.014,130.401 159.098 C 130.522 159.173,130.625 159.550,130.629 159.936 C 130.636 160.645,131.259 161.627,131.701 161.627 C 131.833 161.627,131.941 161.726,131.941 161.847 C 131.941 161.968,132.139 162.067,132.380 162.067 C 132.622 162.067,132.820 162.166,132.820 162.287 C 132.820 162.418,133.663 162.507,134.909 162.507 C 136.155 162.507,136.998 162.418,136.998 162.287 C 136.998 162.166,137.154 162.067,137.344 162.067 C 138.168 162.067,138.575 160.979,138.090 160.074 C 137.896 159.711,137.619 159.648,136.211 159.648 C 133.484 159.648,133.480 159.640,133.480 153.941 L 133.480 149.313 135.600 149.313 C 137.956 149.313,138.298 149.132,138.311 147.877 C 138.323 146.751,137.728 146.454,135.457 146.454 L 133.480 146.454 133.480 144.556 C 133.480 142.137,132.051 140.715,130.838 141.927 M146.014 146.234 C 146.014 146.355,145.717 146.454,145.355 146.454 C 144.992 146.454,144.695 146.553,144.695 146.674 C 144.695 146.795,144.452 146.894,144.155 146.894 C 143.463 146.894,140.737 149.511,140.737 150.174 C 140.737 150.426,140.638 150.632,140.517 150.632 C 140.396 150.632,140.297 150.810,140.297 151.028 C 140.297 151.246,140.177 151.544,140.030 151.690 C 139.524 152.197,139.683 156.517,140.250 157.655 C 140.518 158.192,140.737 158.765,140.737 158.929 C 140.737 159.453,143.145 161.627,143.725 161.627 C 144.016 161.627,144.255 161.726,144.255 161.847 C 144.255 161.968,144.453 162.067,144.695 162.067 C 144.937 162.067,145.135 162.166,145.135 162.287 C 145.135 162.408,145.525 162.507,146.001 162.507 C 146.478 162.507,146.929 162.606,147.004 162.727 C 147.079 162.848,147.431 162.947,147.786 162.947 C 148.142 162.947,148.433 162.848,148.433 162.727 C 148.433 162.606,148.928 162.507,149.533 162.507 C 150.137 162.507,150.633 162.433,150.634 162.342 C 150.636 162.131,151.713 161.627,152.163 161.627 C 152.703 161.627,154.371 159.915,154.371 159.360 C 154.371 157.800,152.708 157.376,151.166 158.543 C 150.691 158.902,150.179 159.199,150.027 159.202 C 149.876 159.206,149.753 159.307,149.753 159.428 C 149.753 159.549,149.456 159.648,149.093 159.648 C 148.730 159.648,148.433 159.747,148.433 159.868 C 148.433 159.989,148.136 160.088,147.774 160.088 C 147.411 160.088,147.114 160.001,147.114 159.896 C 147.114 159.790,146.829 159.646,146.481 159.576 C 146.132 159.507,145.694 159.297,145.507 159.109 C 145.319 158.922,145.096 158.769,145.011 158.769 C 144.761 158.769,144.034 157.847,143.716 157.126 C 143.025 155.557,142.564 155.690,148.676 155.690 C 153.155 155.690,154.241 155.631,154.496 155.376 C 154.864 155.008,154.948 151.952,154.590 151.952 C 154.469 151.952,154.371 151.605,154.371 151.182 C 154.371 150.759,154.272 150.412,154.151 150.412 C 154.030 150.412,153.931 150.229,153.931 150.005 C 153.931 149.781,153.634 149.287,153.271 148.908 C 152.908 148.528,152.610 148.142,152.609 148.050 C 152.604 147.771,151.108 146.894,150.635 146.894 C 150.392 146.894,150.192 146.795,150.192 146.674 C 150.192 146.553,149.896 146.454,149.533 146.454 C 149.170 146.454,148.873 146.355,148.873 146.234 C 148.873 146.110,148.250 146.014,147.444 146.014 C 146.637 146.014,146.014 146.110,146.014 146.234 M163.606 146.234 C 163.606 146.355,163.260 146.454,162.837 146.454 C 162.413 146.454,162.067 146.553,162.067 146.674 C 162.067 146.795,161.820 146.894,161.517 146.894 C 161.215 146.894,160.968 146.993,160.968 147.114 C 160.968 147.235,160.843 147.334,160.690 147.334 C 160.538 147.334,160.168 147.631,159.868 147.993 C 159.568 148.356,159.217 148.653,159.087 148.653 C 158.957 148.653,158.651 149.024,158.408 149.478 C 157.598 150.989,157.382 151.399,157.195 151.784 C 156.932 152.325,156.962 156.954,157.229 157.119 C 157.350 157.194,157.449 157.429,157.449 157.641 C 157.449 157.853,157.647 158.238,157.889 158.498 C 158.131 158.758,158.329 159.088,158.329 159.232 C 158.329 159.648,160.510 161.627,160.968 161.627 C 161.195 161.627,161.443 161.726,161.517 161.847 C 161.592 161.968,161.845 162.067,162.080 162.067 C 162.315 162.067,162.507 162.166,162.507 162.287 C 162.507 162.408,162.897 162.507,163.373 162.507 C 163.850 162.507,164.301 162.606,164.376 162.727 C 164.451 162.848,164.803 162.947,165.159 162.947 C 165.514 162.947,165.805 162.848,165.805 162.727 C 165.805 162.606,166.245 162.507,166.782 162.507 C 167.319 162.507,167.820 162.408,167.894 162.287 C 167.969 162.166,168.222 162.067,168.457 162.067 C 168.692 162.067,168.884 161.968,168.884 161.847 C 168.884 161.726,169.069 161.627,169.296 161.627 C 170.768 161.627,172.389 158.294,171.083 157.953 C 170.841 157.889,170.643 157.750,170.643 157.643 C 170.643 157.175,169.465 157.487,168.884 158.109 C 168.545 158.472,168.110 158.769,167.916 158.769 C 167.723 158.769,167.565 158.868,167.565 158.988 C 167.565 159.109,167.416 159.208,167.235 159.208 C 167.053 159.208,166.905 159.307,166.905 159.428 C 166.905 159.549,166.616 159.648,166.264 159.648 C 165.911 159.648,165.577 159.772,165.521 159.923 C 165.441 160.143,165.362 160.143,165.129 159.923 C 164.969 159.772,164.669 159.648,164.463 159.648 C 163.680 159.648,161.627 158.386,161.627 157.905 C 161.627 157.775,161.547 157.669,161.448 157.669 C 161.223 157.669,160.308 155.975,160.308 155.559 C 160.308 155.389,160.209 155.250,160.088 155.250 C 159.967 155.250,159.868 154.910,159.868 154.493 C 159.868 154.077,159.967 153.676,160.088 153.601 C 160.209 153.526,160.308 153.223,160.308 152.928 C 160.308 152.633,160.407 152.391,160.528 152.391 C 160.649 152.391,160.748 152.230,160.748 152.032 C 160.748 151.835,160.928 151.513,161.148 151.318 C 161.368 151.122,161.612 150.789,161.691 150.577 C 161.769 150.366,161.985 150.192,162.170 150.192 C 162.355 150.192,162.508 150.118,162.509 150.027 C 162.511 149.830,163.576 149.313,163.980 149.313 C 164.137 149.313,164.266 149.214,164.266 149.093 C 164.266 148.972,164.662 148.873,165.146 148.873 C 165.629 148.873,166.025 148.972,166.025 149.093 C 166.025 149.214,166.223 149.313,166.465 149.313 C 166.707 149.313,166.905 149.388,166.905 149.479 C 166.905 149.570,167.226 149.786,167.620 149.957 C 168.013 150.129,168.494 150.450,168.690 150.671 C 169.170 151.213,170.810 151.223,171.217 150.687 C 171.961 149.707,170.828 147.362,169.599 147.339 C 169.447 147.336,169.324 147.235,169.324 147.114 C 169.324 146.993,169.027 146.894,168.664 146.894 C 168.301 146.894,168.004 146.795,168.004 146.674 C 168.004 146.553,167.708 146.454,167.345 146.454 C 166.982 146.454,166.685 146.355,166.685 146.234 C 166.685 146.109,166.025 146.014,165.146 146.014 C 164.266 146.014,163.606 146.109,163.606 146.234 M225.618 146.234 C 225.618 146.355,225.322 146.454,224.959 146.454 C 224.596 146.454,224.299 146.553,224.299 146.674 C 224.299 146.795,224.045 146.894,223.734 146.894 C 223.423 146.894,223.022 147.040,222.843 147.219 C 222.664 147.398,222.398 147.620,222.251 147.714 C 221.386 148.263,220.121 150.081,220.121 150.773 C 220.121 151.179,220.022 151.512,219.901 151.512 C 219.780 151.512,219.681 151.809,219.681 152.172 C 219.681 152.534,219.582 152.831,219.461 152.831 C 219.336 152.831,219.241 153.487,219.241 154.358 C 219.241 155.197,219.340 155.945,219.461 156.020 C 219.582 156.095,219.681 156.447,219.681 156.802 C 219.681 157.158,219.780 157.449,219.901 157.449 C 220.022 157.449,220.121 157.698,220.121 158.002 C 220.121 158.982,222.235 161.627,223.018 161.627 C 223.232 161.627,223.758 161.825,224.189 162.067 C 224.620 162.309,225.310 162.507,225.722 162.507 C 226.135 162.507,226.533 162.606,226.608 162.727 C 226.683 162.848,227.035 162.947,227.391 162.947 C 227.746 162.947,228.037 162.848,228.037 162.727 C 228.037 162.606,228.532 162.507,229.137 162.507 C 229.742 162.507,230.236 162.408,230.236 162.287 C 230.236 162.166,230.434 162.067,230.676 162.067 C 230.918 162.067,231.116 161.968,231.116 161.847 C 231.116 161.726,231.306 161.627,231.538 161.627 C 232.297 161.627,233.755 160.108,233.755 159.316 C 233.755 157.981,231.988 157.359,230.947 158.329 C 230.687 158.571,230.372 158.769,230.246 158.769 C 230.120 158.769,230.016 158.868,230.016 158.988 C 230.016 159.109,229.819 159.208,229.577 159.208 C 229.335 159.208,229.137 159.307,229.137 159.428 C 229.137 159.549,228.895 159.648,228.600 159.648 C 228.305 159.648,228.002 159.747,227.927 159.868 C 227.853 159.989,227.550 160.088,227.255 160.088 C 226.960 160.088,226.718 159.989,226.718 159.868 C 226.718 159.747,226.471 159.648,226.168 159.648 C 225.866 159.648,225.618 159.549,225.618 159.428 C 225.618 159.307,225.467 159.208,225.281 159.208 C 224.905 159.208,223.419 157.811,223.419 157.456 C 223.419 157.332,223.321 157.229,223.200 157.229 C 223.079 157.229,222.980 157.002,222.980 156.723 C 222.980 156.445,222.861 156.099,222.716 155.954 C 222.511 155.749,223.711 155.690,228.119 155.690 C 232.737 155.690,233.844 155.632,234.100 155.376 C 234.448 155.028,234.550 152.501,234.223 152.299 C 234.118 152.234,233.967 151.773,233.887 151.274 C 233.601 149.482,231.483 146.894,230.303 146.894 C 230.024 146.894,229.797 146.795,229.797 146.674 C 229.797 146.553,229.500 146.454,229.137 146.454 C 228.774 146.454,228.477 146.355,228.477 146.234 C 228.477 146.110,227.854 146.014,227.048 146.014 C 226.242 146.014,225.618 146.110,225.618 146.234 M241.451 146.234 C 241.451 146.355,241.111 146.454,240.695 146.454 C 240.278 146.454,239.877 146.553,239.802 146.674 C 239.727 146.795,239.523 146.894,239.347 146.894 C 238.599 146.894,237.053 148.813,237.053 149.742 C 237.053 149.942,236.938 150.220,236.796 150.362 C 236.600 150.558,236.606 150.842,236.821 151.560 C 237.435 153.608,238.157 154.488,239.417 154.725 C 239.810 154.799,240.132 154.947,240.132 155.055 C 240.132 155.162,240.330 155.250,240.572 155.250 C 240.814 155.250,241.012 155.349,241.012 155.470 C 241.012 155.591,241.352 155.690,241.768 155.690 C 242.184 155.690,242.586 155.789,242.661 155.910 C 242.736 156.031,242.990 156.130,243.227 156.130 C 243.744 156.130,244.436 156.507,245.123 157.164 C 245.640 157.659,245.805 158.329,245.410 158.329 C 245.289 158.329,245.190 158.486,245.190 158.679 C 245.190 158.872,244.992 159.081,244.750 159.145 C 244.508 159.208,244.310 159.347,244.310 159.454 C 244.310 159.561,244.112 159.648,243.870 159.648 C 243.628 159.648,243.430 159.747,243.430 159.868 C 243.430 159.989,243.134 160.088,242.771 160.088 C 242.408 160.088,242.111 159.989,242.111 159.868 C 242.111 159.747,241.814 159.648,241.451 159.648 C 241.089 159.648,240.792 159.549,240.792 159.428 C 240.792 159.307,240.594 159.208,240.352 159.208 C 240.110 159.208,239.912 159.109,239.912 158.988 C 239.912 158.868,239.783 158.769,239.626 158.769 C 239.221 158.769,238.157 158.251,238.155 158.054 C 238.152 157.787,237.612 157.863,236.867 158.235 C 235.302 159.016,236.551 161.627,238.490 161.627 C 238.909 161.627,239.252 161.726,239.252 161.847 C 239.252 161.968,239.444 162.067,239.679 162.067 C 239.914 162.067,240.167 162.166,240.242 162.287 C 240.319 162.412,241.417 162.507,242.784 162.507 C 244.241 162.507,245.190 162.420,245.190 162.287 C 245.190 162.166,245.388 162.067,245.629 162.067 C 245.871 162.067,246.069 161.968,246.069 161.847 C 246.069 161.726,246.242 161.624,246.454 161.620 C 246.929 161.612,247.609 161.116,247.609 160.778 C 247.609 160.641,247.708 160.528,247.828 160.528 C 247.949 160.528,248.048 160.280,248.048 159.978 C 248.048 159.676,248.147 159.428,248.268 159.428 C 248.395 159.428,248.488 158.736,248.488 157.792 C 248.488 156.892,248.389 156.095,248.268 156.020 C 248.147 155.945,248.048 155.734,248.048 155.551 C 248.048 155.018,246.423 153.711,245.760 153.711 C 245.567 153.711,245.410 153.612,245.410 153.491 C 245.410 153.370,245.217 153.271,244.983 153.271 C 244.748 153.271,244.495 153.172,244.420 153.051 C 244.345 152.930,243.963 152.831,243.571 152.831 C 242.824 152.831,241.676 152.399,241.673 152.117 C 241.672 152.026,241.524 151.952,241.344 151.952 C 240.833 151.952,240.132 151.243,240.132 150.727 C 240.132 150.148,240.829 149.313,241.312 149.313 C 241.510 149.313,241.671 149.214,241.671 149.093 C 241.671 148.972,242.067 148.873,242.551 148.873 C 243.035 148.873,243.430 148.972,243.430 149.093 C 243.430 149.214,243.625 149.313,243.864 149.313 C 244.102 149.313,244.658 149.516,245.099 149.764 C 245.662 150.080,246.206 150.195,246.920 150.148 L 247.938 150.082 248.006 149.034 C 248.049 148.362,247.967 147.889,247.777 147.715 C 247.207 147.192,246.509 146.894,245.852 146.894 C 245.488 146.894,245.190 146.795,245.190 146.674 C 245.190 146.553,244.794 146.454,244.310 146.454 C 243.826 146.454,243.430 146.355,243.430 146.234 C 243.430 146.113,242.985 146.014,242.441 146.014 C 241.897 146.014,241.451 146.113,241.451 146.234 M257.174 146.234 C 257.100 146.355,256.747 146.454,256.392 146.454 C 256.036 146.454,255.745 146.553,255.745 146.674 C 255.745 146.795,255.534 146.894,255.276 146.894 C 255.018 146.894,254.647 147.072,254.451 147.290 C 254.256 147.508,253.725 147.965,253.271 148.306 C 252.817 148.646,252.446 149.090,252.446 149.290 C 252.446 149.491,252.248 149.798,252.007 149.973 C 251.765 150.147,251.567 150.417,251.567 150.574 C 251.567 150.730,251.480 151.030,251.374 151.240 C 250.716 152.543,250.400 155.926,250.907 156.240 C 251.028 156.314,251.127 156.608,251.127 156.892 C 251.127 157.464,251.986 159.208,252.267 159.208 C 252.366 159.208,252.446 159.364,252.446 159.555 C 252.446 160.057,254.228 161.614,254.810 161.621 C 255.082 161.625,255.305 161.726,255.305 161.847 C 255.305 161.968,255.503 162.067,255.745 162.067 C 255.987 162.067,256.185 162.166,256.185 162.287 C 256.185 162.408,256.630 162.507,257.174 162.507 C 257.719 162.507,258.164 162.606,258.164 162.727 C 258.164 162.848,258.461 162.947,258.824 162.947 C 259.186 162.947,259.483 162.848,259.483 162.727 C 259.483 162.606,259.978 162.507,260.583 162.507 C 261.187 162.507,261.682 162.408,261.682 162.287 C 261.682 162.166,261.880 162.067,262.122 162.067 C 262.364 162.067,262.562 161.968,262.562 161.847 C 262.562 161.726,262.814 161.627,263.122 161.627 C 263.429 161.627,263.929 161.380,264.231 161.078 C 264.533 160.775,264.851 160.528,264.937 160.528 C 265.482 160.528,265.661 159.195,265.203 158.552 C 264.604 157.711,262.915 157.563,262.672 158.329 C 262.595 158.571,262.360 158.769,262.149 158.769 C 261.938 158.769,261.553 158.966,261.293 159.208 C 261.033 159.450,260.570 159.648,260.262 159.648 C 259.955 159.648,259.703 159.747,259.703 159.868 C 259.703 159.989,259.406 160.088,259.043 160.088 C 258.681 160.088,258.384 159.989,258.384 159.868 C 258.384 159.747,258.087 159.648,257.724 159.648 C 257.361 159.648,257.064 159.566,257.064 159.465 C 257.064 159.365,256.792 159.142,256.460 158.971 C 255.707 158.582,255.305 158.211,255.305 157.905 C 255.305 157.775,255.206 157.669,255.085 157.669 C 254.964 157.669,254.865 157.529,254.865 157.358 C 254.865 157.186,254.782 157.013,254.679 156.973 C 254.577 156.932,254.427 156.627,254.345 156.295 L 254.197 155.690 259.919 155.690 C 265.494 155.690,265.640 155.679,265.640 155.250 C 265.640 155.008,265.739 154.810,265.860 154.810 C 265.981 154.810,266.080 154.365,266.080 153.821 C 266.080 153.277,265.981 152.831,265.860 152.831 C 265.739 152.831,265.640 152.287,265.640 151.622 C 265.640 150.957,265.542 150.412,265.421 150.412 C 265.300 150.412,265.201 150.264,265.201 150.082 C 265.201 149.901,265.102 149.753,264.981 149.753 C 264.860 149.753,264.761 149.621,264.761 149.460 C 264.761 148.944,262.389 146.894,261.791 146.894 C 261.489 146.894,261.242 146.795,261.242 146.674 C 261.242 146.553,261.001 146.454,260.706 146.454 C 260.410 146.454,260.108 146.355,260.033 146.234 C 259.958 146.113,259.315 146.014,258.604 146.014 C 257.892 146.014,257.249 146.113,257.174 146.234 M302.364 146.234 C 302.364 146.355,302.067 146.454,301.704 146.454 C 301.341 146.454,301.045 146.553,301.045 146.674 C 301.045 146.795,300.770 146.894,300.433 146.894 C 300.074 146.894,299.691 147.075,299.505 147.334 C 299.331 147.576,299.072 147.774,298.930 147.774 C 298.124 147.774,296.372 150.605,296.140 152.281 C 295.757 155.053,296.204 158.769,296.920 158.769 C 297.012 158.769,297.086 158.912,297.086 159.086 C 297.086 159.623,299.285 161.627,299.874 161.627 C 300.165 161.627,300.616 161.825,300.875 162.067 C 301.196 162.366,301.651 162.507,302.295 162.507 C 302.817 162.507,303.244 162.606,303.244 162.727 C 303.244 162.848,303.535 162.947,303.890 162.947 C 304.246 162.947,304.598 162.848,304.673 162.727 C 304.748 162.606,305.248 162.507,305.785 162.507 C 306.322 162.507,306.762 162.408,306.762 162.287 C 306.762 162.166,306.892 162.067,307.051 162.067 C 308.360 162.067,310.280 160.465,310.280 159.373 C 310.280 157.964,308.793 157.321,307.738 158.274 C 307.504 158.486,306.817 158.893,306.212 159.178 C 305.607 159.463,304.941 159.784,304.731 159.892 C 304.218 160.155,303.463 160.141,303.463 159.868 C 303.463 159.747,303.167 159.648,302.804 159.648 C 302.441 159.648,302.144 159.549,302.144 159.428 C 302.144 159.307,301.996 159.208,301.814 159.208 C 301.633 159.208,301.484 159.109,301.484 158.988 C 301.484 158.868,301.361 158.768,301.209 158.768 C 301.058 158.768,300.737 158.471,300.495 158.109 C 300.253 157.747,299.981 157.450,299.890 157.450 C 299.799 157.449,299.725 157.245,299.725 156.995 C 299.725 156.745,299.623 156.349,299.497 156.115 C 299.275 155.700,299.402 155.690,304.916 155.690 C 310.035 155.690,310.589 155.654,310.854 155.305 C 311.197 154.853,311.266 152.263,310.940 152.062 C 310.819 151.987,310.720 151.753,310.720 151.543 C 310.720 151.062,310.226 149.977,310.005 149.974 C 309.915 149.973,309.841 149.813,309.841 149.619 C 309.841 149.094,307.551 146.894,307.006 146.894 C 306.751 146.894,306.542 146.795,306.542 146.674 C 306.542 146.553,306.251 146.454,305.895 146.454 C 305.540 146.454,305.187 146.355,305.113 146.234 C 305.038 146.113,304.389 146.014,303.670 146.014 C 302.946 146.014,302.364 146.112,302.364 146.234 M318.197 146.234 C 318.197 146.355,317.850 146.454,317.427 146.454 C 317.004 146.454,316.658 146.553,316.658 146.674 C 316.658 146.795,316.455 146.894,316.207 146.894 C 315.960 146.894,315.317 147.328,314.778 147.859 L 313.799 148.825 313.799 150.938 C 313.799 152.200,313.887 153.051,314.019 153.051 C 314.140 153.051,314.239 153.163,314.239 153.300 C 314.239 153.684,315.361 154.561,316.045 154.711 C 316.382 154.785,316.658 154.936,316.658 155.048 C 316.658 155.159,316.905 155.250,317.207 155.250 C 317.510 155.250,317.757 155.349,317.757 155.470 C 317.757 155.591,318.048 155.690,318.404 155.690 C 318.759 155.690,319.112 155.789,319.186 155.910 C 319.261 156.031,319.613 156.130,319.969 156.130 C 320.325 156.130,320.616 156.229,320.616 156.350 C 320.616 156.471,320.777 156.570,320.975 156.570 C 321.426 156.570,322.155 157.391,322.155 157.899 C 322.155 158.392,320.986 159.648,320.527 159.648 C 320.334 159.648,320.176 159.747,320.176 159.868 C 320.176 159.989,319.879 160.088,319.516 160.088 C 319.153 160.088,318.857 159.989,318.857 159.868 C 318.857 159.747,318.560 159.648,318.197 159.648 C 317.834 159.648,317.537 159.549,317.537 159.428 C 317.537 159.307,317.339 159.208,317.097 159.208 C 316.855 159.208,316.658 159.109,316.658 158.988 C 316.658 158.868,316.382 158.769,316.046 158.769 C 315.687 158.769,315.304 158.587,315.118 158.329 C 314.805 157.894,313.799 157.707,313.799 158.083 C 313.799 158.190,313.601 158.329,313.359 158.392 C 312.055 158.734,313.457 161.627,314.927 161.627 C 315.260 161.627,315.593 161.726,315.668 161.847 C 315.743 161.968,316.045 162.067,316.341 162.067 C 316.636 162.067,316.877 162.166,316.877 162.287 C 316.877 162.753,321.368 162.549,322.409 162.036 C 322.935 161.777,323.572 161.471,323.826 161.357 C 324.079 161.243,324.420 160.811,324.581 160.399 C 324.743 159.986,324.956 159.648,325.055 159.648 C 325.477 159.648,325.248 156.127,324.794 155.639 C 324.552 155.380,324.354 155.053,324.354 154.913 C 324.354 154.774,323.884 154.421,323.310 154.130 C 322.735 153.839,322.232 153.527,322.192 153.436 C 322.151 153.345,321.879 153.271,321.587 153.271 C 321.295 153.271,321.056 153.172,321.056 153.051 C 321.056 152.930,320.719 152.831,320.307 152.831 C 319.117 152.831,316.658 151.390,316.658 150.693 C 316.658 150.356,317.422 149.566,318.151 149.148 C 318.723 148.820,320.176 148.781,320.176 149.093 C 320.176 149.214,320.427 149.313,320.735 149.313 C 321.042 149.313,321.506 149.511,321.766 149.753 C 322.333 150.281,324.000 150.358,324.480 149.878 C 325.184 149.174,324.707 147.334,323.820 147.334 C 323.630 147.334,323.474 147.235,323.474 147.114 C 323.474 146.993,323.128 146.894,322.705 146.894 C 322.281 146.894,321.935 146.795,321.935 146.674 C 321.935 146.553,321.545 146.454,321.069 146.454 C 320.592 146.454,320.141 146.355,320.066 146.234 C 319.991 146.113,319.540 146.014,319.063 146.014 C 318.587 146.014,318.197 146.113,318.197 146.234 M359.318 146.234 C 359.318 146.355,359.021 146.454,358.659 146.454 C 358.296 146.454,357.999 146.553,357.999 146.674 C 357.999 146.795,357.727 146.895,357.394 146.897 C 356.237 146.902,353.381 149.637,353.381 150.739 C 353.381 150.922,353.282 151.072,353.161 151.072 C 353.040 151.072,352.941 151.270,352.941 151.512 C 352.941 151.754,352.842 151.952,352.721 151.952 C 352.588 151.952,352.501 152.900,352.501 154.358 C 352.501 155.724,352.596 156.822,352.721 156.899 C 352.842 156.974,352.941 157.227,352.941 157.462 C 352.941 157.697,353.040 157.889,353.161 157.889 C 353.282 157.889,353.381 158.039,353.381 158.222 C 353.381 159.131,355.729 161.627,356.584 161.627 C 356.879 161.627,357.119 161.726,357.119 161.847 C 357.119 161.968,357.317 162.067,357.559 162.067 C 357.801 162.067,357.999 162.166,357.999 162.287 C 357.999 162.408,358.438 162.507,358.975 162.507 C 359.513 162.507,360.013 162.606,360.088 162.727 C 360.163 162.848,360.460 162.947,360.748 162.947 C 361.036 162.947,361.333 162.848,361.407 162.727 C 361.482 162.606,361.983 162.507,362.520 162.507 C 363.057 162.507,363.496 162.408,363.496 162.287 C 363.496 162.166,363.694 162.067,363.936 162.067 C 364.178 162.067,364.376 161.980,364.376 161.875 C 364.376 161.769,364.653 161.627,364.991 161.559 C 365.616 161.434,367.455 159.981,367.455 159.612 C 367.455 159.501,367.638 159.214,367.861 158.974 C 368.085 158.734,368.388 158.119,368.536 157.608 C 368.683 157.097,368.896 156.376,369.009 156.004 C 369.281 155.108,369.271 153.112,368.994 152.941 C 368.873 152.866,368.774 152.600,368.774 152.349 C 368.774 150.619,365.860 146.894,364.506 146.894 C 364.207 146.894,363.901 146.795,363.826 146.674 C 363.752 146.553,363.350 146.454,362.934 146.454 C 362.518 146.454,362.177 146.355,362.177 146.234 C 362.177 146.110,361.554 146.014,360.748 146.014 C 359.941 146.014,359.318 146.110,359.318 146.234 M269.214 146.783 C 268.925 147.112,268.793 160.991,269.072 161.719 C 269.146 161.911,269.344 162.067,269.512 162.067 C 269.681 162.067,269.819 162.166,269.819 162.287 C 269.819 162.624,271.348 162.548,271.703 162.193 C 271.948 161.948,272.018 161.143,272.018 158.564 C 272.018 156.501,272.101 155.250,272.237 155.250 C 272.358 155.250,272.457 154.860,272.457 154.384 C 272.457 153.907,272.544 153.464,272.649 153.399 C 272.754 153.333,272.897 152.995,272.967 152.646 C 273.112 151.925,274.671 150.192,275.176 150.192 C 275.360 150.192,275.571 150.093,275.646 149.973 C 275.721 149.852,276.018 149.753,276.306 149.753 C 276.594 149.753,276.891 149.654,276.965 149.533 C 277.040 149.412,277.251 149.313,277.434 149.313 C 277.998 149.313,278.395 148.722,278.395 147.883 C 278.395 147.443,278.253 146.941,278.081 146.768 C 277.717 146.404,275.096 146.321,275.096 146.674 C 275.096 146.795,274.874 146.894,274.601 146.894 C 274.081 146.894,272.897 147.774,272.897 148.160 C 272.897 148.352,272.415 148.653,272.110 148.653 C 272.059 148.653,272.018 148.300,272.018 147.868 C 272.018 146.579,270.060 145.821,269.214 146.783 M279.989 146.783 C 279.663 147.154,279.617 148.873,279.934 148.873 C 280.055 148.873,280.154 149.170,280.154 149.533 C 280.154 149.896,280.253 150.192,280.374 150.192 C 280.495 150.192,280.594 150.342,280.594 150.525 C 280.594 150.836,280.999 151.705,281.259 151.952 C 281.323 152.012,281.550 152.627,281.763 153.319 C 281.976 154.010,282.246 154.634,282.362 154.706 C 282.478 154.778,282.573 155.028,282.573 155.263 C 282.573 155.498,282.672 155.690,282.793 155.690 C 282.914 155.690,283.013 155.931,283.013 156.227 C 283.013 156.522,283.112 156.825,283.233 156.899 C 283.353 156.974,283.452 157.227,283.452 157.462 C 283.452 157.697,283.551 157.889,283.672 157.889 C 283.793 157.889,283.892 158.087,283.892 158.329 C 283.892 158.571,283.991 158.769,284.112 158.769 C 284.233 158.769,284.332 158.961,284.332 159.195 C 284.332 159.430,284.431 159.683,284.552 159.758 C 284.673 159.833,284.772 160.086,284.772 160.321 C 284.772 160.556,284.871 160.748,284.992 160.748 C 285.113 160.748,285.212 160.901,285.212 161.088 C 285.212 161.762,286.237 162.507,287.165 162.507 C 288.036 162.507,289.390 161.352,289.390 160.608 C 289.390 160.279,290.325 158.463,290.544 158.365 C 290.635 158.325,290.709 158.003,290.709 157.651 C 290.709 157.298,290.808 157.009,290.929 157.009 C 291.050 157.009,291.149 156.811,291.149 156.570 C 291.149 156.328,291.248 156.130,291.369 156.130 C 291.490 156.130,291.589 155.938,291.589 155.703 C 291.589 155.468,291.688 155.215,291.809 155.140 C 291.930 155.065,292.029 154.771,292.029 154.486 C 292.029 154.201,292.106 153.934,292.202 153.894 C 292.405 153.808,293.637 151.332,293.715 150.852 C 293.745 150.671,294.020 150.027,294.327 149.423 C 295.302 147.502,294.859 146.454,293.070 146.454 L 292.075 146.454 291.172 148.302 C 290.676 149.318,290.269 150.357,290.269 150.611 C 290.269 150.864,290.170 151.072,290.049 151.072 C 289.929 151.072,289.830 151.270,289.830 151.512 C 289.830 151.754,289.731 151.952,289.610 151.952 C 289.489 151.952,289.390 152.144,289.390 152.378 C 289.390 152.613,289.291 152.866,289.170 152.941 C 289.049 153.016,288.950 153.266,288.950 153.498 C 288.950 153.864,288.222 155.683,287.612 156.841 C 287.501 157.051,287.410 157.398,287.410 157.611 C 287.409 158.089,286.557 156.756,286.461 156.125 C 286.425 155.892,286.327 155.633,286.244 155.549 C 286.160 155.465,286.091 155.215,286.091 154.994 C 286.091 154.772,285.992 154.590,285.871 154.590 C 285.750 154.590,285.651 154.393,285.651 154.151 C 285.651 153.909,285.553 153.711,285.432 153.711 C 285.311 153.711,285.212 153.513,285.212 153.271 C 285.212 153.029,285.113 152.831,284.992 152.831 C 284.871 152.831,284.772 152.540,284.772 152.185 C 284.772 151.829,284.673 151.477,284.552 151.402 C 284.431 151.327,284.330 151.099,284.327 150.894 C 284.324 150.690,284.129 150.275,283.892 149.973 C 283.656 149.670,283.460 149.151,283.457 148.818 C 283.455 148.485,283.353 148.213,283.233 148.213 C 283.112 148.213,283.013 148.060,283.013 147.873 C 283.013 146.797,280.709 145.966,279.989 146.783 M336.284 146.783 C 335.744 147.396,336.273 150.192,336.929 150.192 C 337.028 150.192,337.108 150.347,337.108 150.536 C 337.108 150.955,338.446 153.792,338.692 153.894 C 338.788 153.934,338.870 154.182,338.872 154.444 C 338.875 154.706,339.071 155.168,339.307 155.470 C 339.544 155.772,339.740 156.143,339.742 156.295 C 339.745 156.446,339.846 156.570,339.967 156.570 C 340.088 156.570,340.187 156.811,340.187 157.106 C 340.187 157.402,340.286 157.704,340.407 157.779 C 340.528 157.854,340.627 158.107,340.627 158.342 C 340.627 158.576,340.726 158.769,340.847 158.769 C 340.968 158.769,341.067 158.966,341.067 159.208 C 341.067 159.450,341.165 159.648,341.286 159.648 C 341.407 159.648,341.506 159.797,341.506 159.978 C 341.506 160.159,341.605 160.308,341.726 160.308 C 341.847 160.308,341.946 160.605,341.946 160.968 C 341.946 161.334,342.063 161.627,342.210 161.627 C 342.415 161.627,342.415 161.686,342.210 161.891 C 342.065 162.036,341.946 162.295,341.946 162.466 C 341.946 163.063,340.374 164.266,339.594 164.266 C 339.195 164.266,338.868 164.162,338.868 164.035 C 338.868 163.497,336.591 163.904,336.257 164.501 C 335.652 165.583,336.616 166.905,338.009 166.905 C 338.225 166.905,338.451 166.984,338.511 167.081 C 339.147 168.111,343.925 166.358,343.925 165.094 C 343.925 164.934,344.123 164.660,344.365 164.486 C 344.607 164.312,344.805 163.997,344.805 163.787 C 344.805 163.578,345.102 162.902,345.465 162.287 C 345.827 161.672,346.124 161.030,346.124 160.861 C 346.124 160.692,346.223 160.493,346.344 160.418 C 346.465 160.343,346.564 160.040,346.564 159.745 C 346.564 159.450,346.663 159.208,346.784 159.208 C 346.905 159.208,347.004 159.010,347.004 158.769 C 347.004 158.527,347.103 158.329,347.224 158.329 C 347.345 158.329,347.444 158.137,347.444 157.902 C 347.444 157.667,347.543 157.414,347.664 157.339 C 347.784 157.264,347.883 157.017,347.883 156.789 C 347.883 156.560,348.230 155.684,348.653 154.840 C 349.076 153.997,349.425 153.076,349.428 152.794 C 349.430 152.512,349.626 152.034,349.863 151.732 C 350.099 151.429,350.295 151.009,350.297 150.797 C 350.300 150.585,350.401 150.412,350.522 150.412 C 350.643 150.412,350.742 150.066,350.742 149.643 C 350.742 149.219,350.841 148.873,350.962 148.873 C 351.301 148.873,351.222 147.123,350.868 146.768 C 349.944 145.845,347.883 146.836,347.883 148.203 C 347.883 148.572,347.784 148.873,347.664 148.873 C 347.543 148.873,347.444 149.071,347.444 149.313 C 347.444 149.555,347.345 149.753,347.224 149.753 C 347.103 149.753,347.004 149.951,347.004 150.192 C 347.004 150.434,346.929 150.632,346.837 150.632 C 346.636 150.632,346.124 152.208,346.124 152.828 C 346.124 153.072,346.025 153.271,345.904 153.271 C 345.783 153.271,345.684 153.469,345.684 153.711 C 345.684 153.953,345.585 154.151,345.465 154.151 C 345.344 154.151,345.245 154.349,345.245 154.590 C 345.245 154.832,345.146 155.030,345.025 155.030 C 344.904 155.030,344.805 155.377,344.805 155.800 C 344.805 156.223,344.706 156.570,344.585 156.570 C 344.464 156.570,344.365 156.767,344.365 157.009 C 344.365 157.303,344.218 157.449,343.925 157.449 C 343.648 157.449,343.485 157.303,343.485 157.053 C 343.485 156.562,342.994 155.474,342.771 155.472 C 342.680 155.471,342.606 155.334,342.606 155.167 C 342.606 155.000,342.439 154.481,342.234 154.013 C 342.030 153.544,341.857 153.108,341.850 153.044 C 341.806 152.666,340.969 151.072,340.813 151.072 C 340.711 151.072,340.627 150.828,340.627 150.529 C 340.627 150.230,340.438 149.650,340.208 149.240 C 339.686 148.312,339.437 147.831,339.076 147.059 C 338.749 146.359,336.824 146.169,336.284 146.783 M372.394 146.737 C 371.718 147.527,371.614 148.394,371.714 152.405 C 371.825 156.835,372.007 158.769,372.314 158.769 C 372.423 158.769,372.512 158.968,372.512 159.211 C 372.512 159.873,373.419 161.152,374.107 161.462 C 374.439 161.612,374.711 161.809,374.711 161.901 C 374.711 161.992,374.909 162.067,375.151 162.067 C 375.393 162.067,375.591 162.166,375.591 162.287 C 375.591 163.280,381.377 162.280,382.463 161.099 C 382.837 160.692,382.848 160.697,382.848 161.295 C 382.848 162.532,384.612 162.962,385.606 161.967 L 386.146 161.427 386.146 154.492 C 386.146 146.541,386.127 146.454,384.332 146.454 C 382.858 146.454,382.848 146.492,382.848 152.046 C 382.848 154.776,382.765 157.009,382.665 157.009 C 382.564 157.009,382.342 157.281,382.170 157.614 C 381.780 158.371,381.571 158.580,380.814 158.971 C 380.481 159.142,380.209 159.365,380.209 159.465 C 380.209 159.860,377.309 159.667,376.936 159.248 C 376.741 159.028,376.429 158.792,376.244 158.724 C 375.463 158.435,375.151 156.431,375.151 151.691 C 375.151 147.602,375.114 147.148,374.749 146.818 C 374.280 146.394,372.734 146.341,372.394 146.737 M148.433 149.093 C 148.433 149.214,148.595 149.313,148.792 149.313 C 149.316 149.313,151.072 151.153,151.072 151.703 C 151.072 151.961,151.171 152.172,151.292 152.172 C 151.413 152.172,151.512 152.320,151.512 152.501 C 151.512 152.783,150.913 152.831,147.444 152.831 C 143.522 152.831,143.375 152.815,143.375 152.391 C 143.375 152.150,143.474 151.952,143.595 151.952 C 143.716 151.952,143.815 151.772,143.815 151.551 C 143.815 151.085,144.939 149.753,145.332 149.753 C 145.480 149.753,145.539 149.654,145.465 149.533 C 145.390 149.412,145.532 149.313,145.781 149.313 C 146.030 149.313,146.234 149.214,146.234 149.093 C 146.234 148.972,146.729 148.873,147.334 148.873 C 147.938 148.873,148.433 148.972,148.433 149.093 M208.796 149.093 C 208.871 149.214,209.124 149.313,209.359 149.313 C 209.594 149.313,209.786 149.412,209.786 149.533 C 209.786 149.654,209.945 149.753,210.139 149.753 C 210.334 149.753,211.026 150.295,211.679 150.957 L 212.864 152.162 212.864 154.476 C 212.864 155.872,212.777 156.789,212.644 156.789 C 212.523 156.789,212.424 156.892,212.424 157.017 C 212.424 157.278,210.987 158.766,210.728 158.773 C 210.633 158.776,210.308 158.972,210.005 159.208 C 209.408 159.676,206.707 159.856,206.707 159.428 C 206.707 159.307,206.509 159.208,206.267 159.208 C 206.025 159.208,205.827 159.109,205.827 158.988 C 205.827 158.868,205.721 158.769,205.592 158.769 C 205.107 158.769,203.848 156.938,203.848 156.233 C 203.848 156.055,203.749 155.910,203.628 155.910 C 203.356 155.910,203.335 153.409,203.603 152.883 C 203.710 152.673,203.932 152.205,204.096 151.842 C 204.479 150.997,205.532 149.943,206.377 149.561 C 206.740 149.396,207.185 149.180,207.367 149.080 C 207.831 148.825,208.635 148.832,208.796 149.093 M228.037 149.093 C 228.037 149.214,228.186 149.313,228.367 149.313 C 228.813 149.313,230.076 150.589,230.436 151.402 C 230.596 151.765,230.816 152.235,230.924 152.446 C 231.107 152.806,230.854 152.831,227.050 152.831 C 223.320 152.831,222.980 152.799,222.979 152.446 C 222.978 151.879,223.924 150.192,224.244 150.192 C 224.395 150.192,224.519 150.093,224.519 149.973 C 224.519 149.852,224.667 149.753,224.849 149.753 C 225.030 149.753,225.179 149.677,225.179 149.585 C 225.179 149.276,226.159 148.927,227.103 148.900 C 227.617 148.885,228.037 148.972,228.037 149.093 M259.703 149.093 C 259.703 149.214,259.856 149.313,260.043 149.313 C 260.695 149.313,262.562 151.618,262.562 152.422 C 262.562 152.806,262.314 152.831,258.494 152.831 L 254.426 152.831 254.426 152.323 C 254.426 152.043,254.623 151.602,254.865 151.343 C 255.107 151.083,255.305 150.718,255.305 150.531 C 255.305 150.345,255.481 150.192,255.696 150.192 C 255.912 150.192,256.230 149.995,256.405 149.753 C 256.579 149.511,256.898 149.313,257.113 149.313 C 257.328 149.313,257.504 149.214,257.504 149.093 C 257.504 148.972,257.999 148.873,258.604 148.873 C 259.208 148.873,259.703 148.972,259.703 149.093 M304.783 149.056 C 304.783 149.156,305.055 149.378,305.388 149.549 C 306.102 149.916,306.981 150.847,306.982 151.237 C 306.982 151.388,307.081 151.512,307.202 151.512 C 307.323 151.512,307.422 151.710,307.422 151.952 C 307.422 152.194,307.521 152.391,307.642 152.391 C 307.763 152.391,307.861 152.490,307.861 152.611 C 307.861 152.750,306.321 152.831,303.679 152.831 L 299.497 152.831 299.647 152.226 C 299.876 151.305,301.019 149.753,301.469 149.753 C 301.598 149.753,301.704 149.654,301.704 149.533 C 301.704 149.412,301.902 149.313,302.144 149.313 C 302.386 149.313,302.584 149.214,302.584 149.093 C 302.584 148.972,303.079 148.873,303.683 148.873 C 304.288 148.873,304.783 148.955,304.783 149.056 M361.517 149.093 C 361.517 149.214,361.646 149.313,361.803 149.313 C 362.208 149.313,363.273 149.830,363.275 150.027 C 363.276 150.118,363.377 150.192,363.500 150.192 C 364.003 150.192,365.256 151.775,365.256 152.410 C 365.256 152.763,365.355 153.051,365.476 153.051 C 365.600 153.051,365.695 153.674,365.695 154.480 C 365.695 155.287,365.600 155.910,365.476 155.910 C 365.355 155.910,365.253 156.182,365.251 156.515 C 365.245 157.132,363.987 158.769,363.518 158.769 C 363.385 158.769,363.277 158.868,363.277 158.988 C 363.277 159.109,363.079 159.208,362.837 159.208 C 362.595 159.208,362.397 159.307,362.397 159.428 C 362.397 159.549,362.108 159.648,361.756 159.648 C 361.403 159.648,361.056 159.772,360.986 159.923 C 360.883 160.143,360.832 160.143,360.729 159.923 C 360.659 159.772,360.312 159.648,359.960 159.648 C 359.607 159.648,359.318 159.549,359.318 159.428 C 359.318 159.307,359.120 159.208,358.879 159.208 C 358.637 159.208,358.439 159.109,358.439 158.988 C 358.439 158.868,358.286 158.769,358.099 158.769 C 357.659 158.769,356.679 157.789,356.679 157.349 C 356.679 157.162,356.601 157.009,356.505 157.009 C 355.839 157.009,355.756 153.345,356.392 152.001 C 356.854 151.023,358.069 149.753,358.541 149.753 C 358.727 149.753,358.879 149.654,358.879 149.533 C 358.879 149.412,359.076 149.313,359.318 149.313 C 359.560 149.313,359.758 149.214,359.758 149.093 C 359.758 148.972,360.154 148.873,360.638 148.873 C 361.121 148.873,361.517 148.972,361.517 149.093 " stroke="none" fill="#303539" fill-rule="evenodd"></path><path id="path1" d="M62.122 62.593 C 44.916 64.513,33.644 80.643,37.941 97.196 C 40.644 107.607,47.475 114.009,58.494 116.459 C 61.187 117.058,67.212 116.985,68.338 116.340 C 71.667 114.433,72.525 109.222,69.966 106.456 C 68.426 104.793,67.444 104.448,63.341 104.124 C 55.799 103.530,51.970 100.668,50.338 94.404 C 47.598 83.884,54.003 75.114,64.431 75.108 C 71.421 75.104,75.834 79.143,77.393 86.971 C 77.538 87.697,77.748 88.648,77.860 89.085 C 77.975 89.531,78.065 95.524,78.065 102.719 C 78.064 122.079,78.354 121.257,71.505 121.307 C 58.676 121.402,49.171 125.410,43.266 133.217 C 33.877 145.629,36.619 164.330,48.889 171.557 C 61.847 179.189,77.226 176.516,85.776 165.146 C 86.185 164.601,86.578 164.107,86.650 164.046 C 86.859 163.870,88.297 161.607,88.898 160.510 C 89.201 159.957,89.555 159.313,89.686 159.081 C 90.460 157.698,92.196 152.959,92.926 150.237 C 94.468 144.481,91.981 140.223,87.081 140.230 C 83.159 140.235,81.027 142.457,80.283 147.314 C 80.017 149.052,78.605 152.846,77.721 154.201 C 77.426 154.652,77.185 155.072,77.185 155.134 C 77.185 155.279,75.924 156.931,74.743 158.331 C 67.465 166.962,52.335 163.872,50.465 153.373 C 49.430 147.565,51.522 141.785,55.878 138.415 C 57.238 137.363,60.784 135.459,61.384 135.459 C 61.594 135.459,61.817 135.377,61.879 135.277 C 61.941 135.176,62.565 134.970,63.266 134.819 C 63.967 134.667,64.986 134.442,65.531 134.318 C 66.075 134.194,68.666 134.100,71.288 134.109 C 80.925 134.140,86.237 131.627,88.889 125.783 C 90.265 122.751,90.325 122.128,90.534 108.851 C 90.815 91.047,90.661 87.281,89.482 83.013 C 88.524 79.545,88.321 78.967,87.356 76.965 C 82.374 66.635,73.122 61.365,62.122 62.593 " stroke="none" fill="#f9fbfa" fill-rule="evenodd"></path><path id="path2" d="M64.211 51.237 C 64.211 51.370,63.299 51.457,61.915 51.457 C 60.652 51.457,59.566 51.542,59.502 51.647 C 59.437 51.751,59.011 51.839,58.554 51.842 C 58.098 51.846,57.279 52.006,56.734 52.199 C 56.190 52.392,55.528 52.551,55.263 52.553 C 54.998 52.555,54.720 52.655,54.645 52.776 C 54.571 52.897,54.120 52.996,53.643 52.996 C 53.166 52.996,52.776 53.095,52.776 53.216 C 52.776 53.337,52.554 53.439,52.281 53.443 C 52.009 53.447,51.599 53.592,51.369 53.766 C 51.140 53.939,50.868 54.029,50.765 53.966 C 50.662 53.902,50.577 53.937,50.577 54.043 C 50.577 54.149,50.082 54.371,49.478 54.535 C 48.873 54.700,48.378 54.916,48.378 55.015 C 48.378 55.114,48.230 55.195,48.048 55.195 C 47.867 55.195,47.719 55.294,47.719 55.415 C 47.719 55.536,47.570 55.635,47.389 55.635 C 47.207 55.635,47.059 55.734,47.059 55.855 C 47.059 55.976,46.830 56.075,46.551 56.075 C 46.271 56.075,45.830 56.273,45.570 56.515 C 45.311 56.756,45.017 56.954,44.918 56.954 C 44.818 56.954,44.594 57.152,44.420 57.394 C 44.246 57.636,43.976 57.834,43.820 57.834 C 43.664 57.834,43.226 58.131,42.846 58.494 C 42.466 58.857,42.075 59.153,41.976 59.153 C 41.525 59.153,36.943 63.736,36.943 64.187 C 36.943 64.285,36.647 64.676,36.284 65.056 C 35.921 65.436,35.624 65.846,35.624 65.968 C 35.624 66.090,35.525 66.190,35.404 66.190 C 35.283 66.190,35.184 66.286,35.184 66.403 C 35.184 66.609,33.660 69.111,33.210 69.644 C 33.086 69.790,32.985 70.063,32.985 70.249 C 32.985 70.436,32.911 70.589,32.820 70.590 C 32.648 70.592,32.106 71.636,32.106 71.965 C 32.106 72.070,31.869 72.669,31.580 73.296 C 31.291 73.923,30.927 74.882,30.772 75.426 C 30.617 75.970,30.408 76.510,30.308 76.625 C 30.208 76.739,30.126 77.061,30.126 77.339 C 30.126 77.617,30.027 77.845,29.907 77.845 C 29.786 77.845,29.687 78.241,29.687 78.725 C 29.687 79.208,29.588 79.604,29.467 79.604 C 29.343 79.604,29.247 80.223,29.247 81.021 C 29.247 81.800,29.148 82.498,29.027 82.573 C 28.906 82.648,28.807 83.346,28.807 84.125 C 28.807 84.923,28.711 85.542,28.587 85.542 C 28.283 85.542,28.283 155.392,28.587 155.580 C 28.708 155.655,28.807 156.304,28.807 157.022 C 28.807 157.747,28.905 158.329,29.027 158.329 C 29.148 158.329,29.247 158.873,29.247 159.538 C 29.247 160.203,29.346 160.748,29.467 160.748 C 29.588 160.748,29.687 161.045,29.687 161.407 C 29.687 161.770,29.786 162.067,29.907 162.067 C 30.027 162.067,30.126 162.266,30.126 162.510 C 30.126 162.753,30.220 163.124,30.335 163.334 C 30.449 163.544,30.711 164.261,30.917 164.926 C 31.123 165.591,31.475 166.480,31.698 166.902 C 31.922 167.323,32.106 167.797,32.106 167.955 C 32.106 168.113,32.303 168.455,32.545 168.715 C 32.787 168.974,32.985 169.317,32.985 169.475 C 32.985 169.634,33.084 169.764,33.205 169.764 C 33.326 169.764,33.425 169.962,33.425 170.203 C 33.425 170.445,33.524 170.643,33.645 170.643 C 33.766 170.643,33.865 170.801,33.865 170.995 C 33.865 171.188,34.162 171.624,34.524 171.963 C 34.887 172.302,35.184 172.691,35.184 172.828 C 35.184 172.965,35.506 173.413,35.899 173.823 C 36.292 174.234,37.108 175.129,37.713 175.812 C 39.248 177.545,39.211 177.509,40.025 178.120 C 40.428 178.422,40.984 178.892,41.260 179.164 C 41.535 179.437,41.864 179.659,41.989 179.659 C 42.115 179.659,42.501 179.956,42.848 180.319 C 43.194 180.682,43.587 180.979,43.719 180.979 C 43.852 180.979,44.321 181.223,44.761 181.522 C 45.201 181.820,45.898 182.186,46.310 182.335 C 46.722 182.484,47.059 182.685,47.059 182.782 C 47.059 182.879,47.257 182.958,47.499 182.958 C 47.741 182.958,47.938 183.057,47.938 183.178 C 47.938 183.299,48.087 183.397,48.268 183.397 C 48.450 183.397,48.598 183.496,48.598 183.617 C 48.598 183.738,48.944 183.837,49.368 183.837 C 49.791 183.837,50.137 183.936,50.137 184.057 C 50.137 184.178,50.335 184.277,50.577 184.277 C 50.819 184.277,51.018 184.351,51.019 184.442 C 51.021 184.688,52.131 185.157,52.710 185.157 C 52.988 185.157,53.216 185.256,53.216 185.377 C 53.216 185.498,53.562 185.596,53.986 185.596 C 54.409 185.596,54.755 185.695,54.755 185.816 C 54.755 185.937,55.046 186.036,55.402 186.036 C 55.758 186.036,56.110 186.135,56.185 186.256 C 56.259 186.377,56.655 186.476,57.064 186.476 C 57.473 186.476,57.869 186.575,57.944 186.696 C 58.019 186.817,58.965 186.916,60.046 186.916 C 61.178 186.916,62.012 187.007,62.012 187.130 C 62.012 187.401,70.130 187.259,72.897 186.940 C 76.372 186.539,76.965 186.436,76.965 186.234 C 76.965 186.125,77.256 186.036,77.612 186.036 C 77.968 186.036,78.320 185.937,78.395 185.816 C 78.469 185.695,78.865 185.596,79.274 185.596 C 79.683 185.596,80.079 185.498,80.154 185.377 C 80.229 185.256,80.581 185.157,80.937 185.157 C 81.292 185.157,81.583 185.058,81.583 184.937 C 81.583 184.816,81.781 184.717,82.023 184.717 C 82.265 184.717,82.463 184.618,82.463 184.497 C 82.463 184.376,82.710 184.277,83.013 184.277 C 83.315 184.277,83.562 184.178,83.562 184.057 C 83.562 183.936,83.814 183.837,84.121 183.837 C 84.429 183.837,84.893 183.639,85.152 183.397 C 85.412 183.156,85.754 182.958,85.913 182.958 C 86.071 182.958,86.201 182.859,86.201 182.738 C 86.201 182.617,86.399 182.518,86.641 182.518 C 86.883 182.518,87.081 182.419,87.081 182.298 C 87.081 182.177,87.255 182.078,87.468 182.078 C 87.681 182.078,88.122 181.831,88.448 181.528 C 88.774 181.226,89.112 180.979,89.198 180.979 C 89.666 180.979,93.898 176.932,93.898 176.484 C 93.898 176.349,94.096 176.095,94.338 175.921 C 94.579 175.746,94.777 175.493,94.777 175.357 C 94.777 175.221,94.975 174.930,95.217 174.711 C 95.459 174.492,95.657 174.180,95.657 174.018 C 95.657 173.855,95.744 173.722,95.851 173.722 C 95.958 173.722,96.100 173.549,96.168 173.337 C 96.235 173.125,96.433 172.705,96.608 172.402 C 96.784 172.100,97.111 171.457,97.335 170.973 C 97.559 170.489,97.870 169.934,98.026 169.739 C 98.182 169.544,98.369 168.878,98.442 168.260 C 98.516 167.642,98.661 167.189,98.766 167.253 C 98.870 167.318,98.955 167.123,98.955 166.821 C 98.955 166.519,99.054 166.210,99.175 166.135 C 99.296 166.060,99.395 165.708,99.395 165.353 C 99.395 164.997,99.494 164.706,99.615 164.706 C 99.737 164.706,99.835 164.124,99.835 163.399 C 99.835 162.681,99.934 162.032,100.055 161.957 C 100.176 161.882,100.275 161.303,100.275 160.669 C 100.275 160.035,100.371 159.420,100.489 159.303 C 100.613 159.178,100.744 156.247,100.803 152.277 C 100.859 148.530,100.960 144.178,101.029 142.606 C 101.192 138.859,101.351 129.214,101.500 114.025 C 101.568 107.113,101.709 101.611,101.822 101.475 C 101.933 101.341,102.031 98.253,102.040 94.597 C 102.051 90.584,102.140 87.960,102.266 87.960 C 102.543 87.960,102.533 87.144,102.254 86.971 C 102.130 86.894,102.034 85.832,102.034 84.539 C 102.034 83.155,101.947 82.243,101.814 82.243 C 101.687 82.243,101.594 81.551,101.594 80.607 C 101.594 79.707,101.495 78.909,101.374 78.835 C 101.253 78.760,101.154 78.364,101.154 77.955 C 101.154 77.546,101.056 77.150,100.935 77.075 C 100.814 77.001,100.715 76.648,100.715 76.293 C 100.715 75.937,100.616 75.646,100.495 75.646 C 100.374 75.646,100.275 75.399,100.275 75.096 C 100.275 74.794,100.176 74.546,100.055 74.546 C 99.934 74.546,99.835 74.151,99.835 73.667 C 99.835 73.183,99.736 72.787,99.615 72.787 C 99.494 72.787,99.395 72.589,99.395 72.347 C 99.395 72.106,99.296 71.908,99.175 71.908 C 99.054 71.908,98.955 71.716,98.955 71.481 C 98.955 71.246,98.857 70.993,98.736 70.918 C 98.615 70.843,98.516 70.575,98.516 70.322 C 98.516 69.790,97.409 67.510,97.150 67.510 C 97.055 67.510,96.976 67.330,96.976 67.111 C 96.976 66.892,96.778 66.501,96.537 66.241 C 96.295 65.981,96.097 65.666,96.097 65.540 C 96.097 65.414,95.998 65.311,95.877 65.311 C 95.756 65.311,95.657 65.162,95.657 64.981 C 95.657 64.799,95.565 64.651,95.452 64.651 C 95.339 64.651,95.187 64.462,95.114 64.232 C 95.041 64.002,94.440 63.251,93.780 62.563 C 93.119 61.875,92.578 61.244,92.578 61.161 C 92.578 61.077,91.874 60.418,91.014 59.696 C 90.153 58.974,89.319 58.260,89.160 58.109 C 89.001 57.958,88.765 57.834,88.636 57.834 C 88.506 57.834,88.400 57.735,88.400 57.614 C 88.400 57.493,88.277 57.394,88.125 57.394 C 87.974 57.393,87.504 57.097,87.081 56.734 C 86.658 56.372,86.089 56.076,85.816 56.075 C 85.544 56.075,85.322 55.993,85.322 55.892 C 85.322 55.792,85.049 55.569,84.717 55.398 C 84.384 55.226,84.063 55.036,84.002 54.976 C 83.756 54.729,82.890 54.316,82.619 54.316 C 82.460 54.316,81.807 54.055,81.168 53.737 C 80.529 53.418,79.569 53.109,79.035 53.048 C 78.502 52.988,78.065 52.864,78.065 52.773 C 78.065 52.682,77.842 52.552,77.570 52.485 C 75.449 51.958,74.214 51.734,73.962 51.830 C 73.800 51.893,73.667 51.834,73.667 51.700 C 73.667 51.536,72.840 51.457,71.138 51.457 C 69.599 51.457,68.609 51.371,68.609 51.237 C 68.609 51.105,67.730 51.017,66.410 51.017 C 65.091 51.017,64.211 51.105,64.211 51.237 M70.258 62.359 C 72.701 62.909,72.787 62.934,72.913 63.138 C 72.979 63.244,73.250 63.335,73.515 63.338 C 73.962 63.345,74.932 63.786,77.405 65.111 C 77.949 65.402,78.444 65.696,78.505 65.765 C 78.565 65.833,79.082 66.207,79.653 66.596 C 81.094 67.576,84.881 71.389,84.882 71.860 C 84.883 71.947,85.167 72.350,85.514 72.756 C 86.984 74.476,89.132 79.153,89.720 81.913 C 89.823 82.397,90.060 83.386,90.246 84.112 C 91.099 87.435,91.508 93.906,91.240 99.835 C 91.155 101.710,91.065 106.954,91.039 111.490 C 90.974 123.088,90.769 124.313,88.240 128.227 C 85.137 133.031,80.701 135.018,73.071 135.021 C 60.872 135.027,53.608 138.725,51.480 146.014 C 51.321 146.559,51.102 147.231,50.994 147.509 C 50.722 148.206,50.742 153.431,51.017 153.601 C 51.138 153.676,51.237 154.071,51.237 154.480 C 51.237 154.890,51.336 155.285,51.457 155.360 C 51.578 155.435,51.677 155.688,51.677 155.923 C 51.677 156.158,51.776 156.350,51.897 156.350 C 52.018 156.350,52.117 156.497,52.117 156.677 C 52.117 157.458,54.926 160.234,56.458 160.968 C 57.090 161.270,57.609 161.592,57.611 161.682 C 57.613 161.773,57.824 161.847,58.080 161.847 C 58.336 161.847,59.202 162.053,60.004 162.305 C 62.623 163.128,62.800 163.167,63.991 163.167 C 64.639 163.167,65.498 163.068,65.900 162.947 C 66.301 162.826,67.001 162.621,67.455 162.492 C 67.908 162.363,68.477 162.174,68.719 162.071 C 68.961 161.968,69.480 161.753,69.874 161.592 C 70.267 161.431,70.588 161.225,70.588 161.134 C 70.588 161.042,70.716 160.968,70.873 160.968 C 71.637 160.968,75.879 156.578,76.755 154.881 C 76.931 154.540,77.126 154.211,77.189 154.151 C 77.817 153.550,79.426 149.319,79.703 147.545 C 80.666 141.363,83.958 138.800,89.427 139.972 C 89.811 140.055,90.306 140.285,90.527 140.484 C 90.748 140.684,91.300 141.124,91.754 141.463 C 92.207 141.801,92.578 142.177,92.578 142.296 C 92.578 142.416,92.776 142.727,93.018 142.986 C 93.260 143.246,93.458 143.632,93.458 143.844 C 93.458 144.056,93.557 144.290,93.678 144.365 C 93.956 144.537,93.968 148.720,93.693 149.627 C 93.580 149.998,93.365 150.748,93.215 151.292 C 93.065 151.836,92.860 152.375,92.760 152.490 C 92.660 152.605,92.578 152.978,92.578 153.318 C 92.578 153.658,92.488 154.109,92.377 154.319 C 91.968 155.094,91.479 156.314,91.479 156.558 C 91.479 156.988,89.369 161.309,88.646 162.360 C 88.269 162.908,87.960 163.453,87.960 163.573 C 87.960 163.692,87.880 163.823,87.783 163.863 C 87.685 163.903,87.269 164.431,86.859 165.036 C 84.640 168.305,79.154 172.807,74.972 174.790 C 60.239 181.776,39.656 171.774,37.929 156.789 C 37.853 156.124,37.704 155.382,37.600 155.140 C 36.990 153.733,36.985 146.754,37.592 145.245 C 37.689 145.003,37.886 144.162,38.029 143.375 C 38.590 140.285,41.204 134.567,42.651 133.260 C 42.718 133.200,43.039 132.793,43.365 132.356 C 44.378 130.995,45.806 129.602,48.095 127.739 C 48.944 127.048,51.140 125.618,52.007 125.191 C 52.490 124.953,53.233 124.560,53.656 124.318 C 54.079 124.075,54.722 123.803,55.085 123.714 C 55.448 123.624,56.042 123.418,56.405 123.257 C 57.403 122.813,59.027 122.353,61.462 121.826 C 62.672 121.565,64.076 121.259,64.583 121.148 C 65.090 121.037,67.727 120.946,70.442 120.946 L 75.380 120.946 76.050 120.319 C 76.419 119.975,76.783 119.406,76.860 119.055 C 76.937 118.704,77.090 118.219,77.200 117.977 C 77.610 117.074,78.026 91.352,77.636 90.962 C 77.509 90.835,77.405 90.262,77.405 89.689 C 77.405 89.115,77.306 88.585,77.185 88.510 C 77.064 88.435,76.965 88.040,76.965 87.631 C 76.965 87.222,76.866 86.826,76.745 86.751 C 76.625 86.676,76.526 86.378,76.526 86.089 C 76.526 84.297,73.867 79.940,71.818 78.376 C 69.050 76.262,63.816 75.408,60.473 76.525 C 52.733 79.109,49.107 84.981,50.492 92.688 C 50.688 93.777,50.936 94.761,51.043 94.876 C 51.149 94.991,51.237 95.268,51.237 95.492 C 51.237 96.105,52.209 98.009,53.106 99.154 C 54.574 101.028,57.184 102.674,59.373 103.107 C 60.038 103.238,61.107 103.447,61.748 103.570 C 62.389 103.693,63.695 103.793,64.651 103.793 C 65.607 103.793,66.666 103.906,67.004 104.044 C 68.706 104.738,69.120 104.979,69.896 105.729 C 71.737 107.511,72.644 110.612,71.883 112.524 C 69.719 117.957,67.340 118.850,58.604 117.512 C 47.375 115.791,38.142 106.154,37.033 94.997 C 36.979 94.453,36.833 93.068,36.709 91.919 C 36.473 89.737,36.776 84.507,37.183 83.730 C 37.293 83.520,37.383 83.148,37.383 82.903 C 37.383 82.658,37.474 82.285,37.585 82.075 C 37.696 81.865,37.953 81.122,38.157 80.423 C 38.663 78.687,41.025 74.279,41.777 73.667 C 41.852 73.606,42.147 73.221,42.434 72.811 C 43.848 70.788,47.336 67.660,49.588 66.396 C 51.945 65.073,54.763 63.805,55.965 63.527 C 56.570 63.387,57.262 63.198,57.504 63.107 C 59.611 62.315,61.435 62.061,65.201 62.036 C 67.682 62.019,69.173 62.114,70.258 62.359 " stroke="none" fill="#0cd25c" fill-rule="evenodd"></path><path id="path3" d="M63.661 62.146 C 52.540 63.175,44.235 68.535,39.509 77.735 C 38.490 79.718,37.624 82.332,37.249 84.552 C 36.627 88.240,37.073 96.226,38.036 98.626 C 38.133 98.868,38.339 99.511,38.493 100.055 C 40.034 105.495,45.550 111.703,51.237 114.398 C 57.858 117.536,67.042 118.254,69.489 115.827 C 74.161 111.192,71.264 103.918,64.796 104.044 L 63.222 104.075 65.099 104.242 C 70.788 104.750,73.452 110.443,70.046 114.815 C 68.583 116.693,67.972 116.885,63.661 116.827 C 50.603 116.651,41.111 109.406,37.941 97.196 C 37.255 94.553,37.016 88.303,37.480 85.102 C 40.342 65.321,66.361 55.288,80.994 68.323 C 84.338 71.301,87.574 76.309,88.711 80.264 C 89.900 84.399,90.309 85.120,89.331 81.357 C 86.251 69.498,75.023 61.095,63.661 62.146 M61.760 75.092 C 61.689 75.163,61.010 75.378,60.252 75.571 C 57.830 76.185,54.926 77.990,53.108 80.010 C 51.547 81.745,49.651 85.795,49.980 86.691 C 50.037 86.845,50.155 86.674,50.242 86.311 C 51.370 81.632,54.897 77.649,59.179 76.218 C 68.019 73.266,74.865 77.198,76.942 86.421 C 77.201 87.570,77.510 88.932,77.629 89.448 C 77.965 90.906,77.894 113.475,77.544 116.438 C 77.017 120.908,76.845 121.044,71.798 120.983 C 68.273 120.941,64.369 121.271,62.122 121.801 C 56.553 123.115,53.610 124.289,49.750 126.737 C 48.744 127.375,48.440 127.612,46.886 128.972 C 42.820 132.530,39.683 137.473,38.510 142.166 C 38.359 142.771,38.148 143.612,38.042 144.035 C 37.464 146.342,37.348 147.668,37.452 150.755 C 37.513 152.562,37.671 154.511,37.803 155.085 C 37.935 155.660,38.134 156.550,38.246 157.064 C 40.047 165.343,46.580 172.279,54.755 174.592 C 55.300 174.745,55.943 174.948,56.185 175.041 C 56.427 175.135,57.020 175.317,57.504 175.446 C 70.104 178.817,83.839 171.930,89.888 159.208 C 91.152 156.551,91.699 155.289,91.699 155.030 C 91.699 154.906,91.789 154.633,91.900 154.423 C 93.543 151.301,94.114 145.294,92.955 143.322 C 90.292 138.792,83.449 138.655,81.284 143.088 C 81.059 143.548,80.787 144.097,80.679 144.307 C 80.572 144.517,80.487 144.863,80.492 145.077 C 80.496 145.290,80.825 144.772,81.223 143.925 C 82.483 141.245,84.059 140.252,87.081 140.237 C 91.975 140.212,94.469 144.478,92.926 150.237 C 92.196 152.959,90.460 157.698,89.686 159.081 C 89.555 159.313,89.201 159.957,88.898 160.510 C 88.297 161.607,86.859 163.870,86.650 164.046 C 86.578 164.107,86.185 164.601,85.776 165.146 C 77.226 176.516,61.847 179.189,48.889 171.557 C 36.619 164.330,33.877 145.629,43.266 133.217 C 49.171 125.410,58.676 121.402,71.505 121.307 C 78.354 121.257,78.064 122.079,78.065 102.719 C 78.065 95.524,77.975 89.531,77.860 89.085 C 77.748 88.648,77.538 87.697,77.393 86.971 C 76.221 81.087,72.873 76.788,68.455 75.492 C 67.206 75.126,62.035 74.817,61.760 75.092 M89.953 84.671 C 89.946 84.857,90.098 86.193,90.292 87.640 C 91.129 93.875,90.583 121.747,89.576 124.192 C 86.544 131.555,81.772 134.143,71.288 134.109 C 68.666 134.100,66.075 134.194,65.531 134.318 C 64.986 134.442,63.967 134.667,63.266 134.819 C 62.565 134.970,61.941 135.176,61.879 135.277 C 61.817 135.377,61.594 135.459,61.384 135.459 C 60.784 135.459,57.238 137.363,55.878 138.415 C 49.299 143.504,48.179 154.431,53.711 159.555 C 55.544 161.252,61.098 163.714,61.711 163.101 C 61.784 163.028,61.560 162.906,61.213 162.830 C 60.867 162.753,60.335 162.612,60.033 162.515 C 59.731 162.417,59.038 162.207,58.494 162.046 C 57.949 161.886,57.030 161.478,56.450 161.141 C 55.870 160.804,55.313 160.528,55.212 160.528 C 54.364 160.528,51.549 156.579,51.058 154.700 C 48.909 146.492,52.567 139.475,60.803 136.005 C 62.363 135.347,62.547 135.283,63.551 135.050 C 65.563 134.583,66.195 134.530,71.688 134.362 C 78.834 134.144,80.197 133.879,83.414 132.080 C 85.426 130.955,89.060 127.168,89.060 126.197 C 89.060 126.088,89.246 125.579,89.474 125.066 C 90.641 122.436,90.757 120.996,90.809 108.521 C 90.832 103.079,90.943 97.883,91.056 96.976 C 91.262 95.336,91.102 92.287,90.555 87.411 C 90.327 85.378,89.988 83.834,89.953 84.671 M49.779 89.280 C 49.779 90.550,49.815 91.069,49.860 90.434 C 49.904 89.799,49.904 88.760,49.860 88.125 C 49.815 87.490,49.779 88.010,49.779 89.280 M49.933 92.158 C 49.776 97.941,56.026 104.113,61.902 103.978 C 62.628 103.961,62.925 103.909,62.562 103.862 C 56.166 103.032,52.404 100.353,51.039 95.657 C 50.881 95.113,50.663 94.440,50.554 94.162 C 50.446 93.884,50.350 93.390,50.342 93.063 C 50.319 92.187,49.954 91.380,49.933 92.158 M80.281 145.859 C 80.208 146.595,79.541 149.531,79.347 149.973 C 79.214 150.275,79.030 150.720,78.937 150.962 C 76.763 156.633,72.296 161.327,67.949 162.505 C 66.596 162.872,65.982 163.133,66.425 163.152 C 68.382 163.236,72.733 160.714,74.743 158.331 C 75.924 156.931,77.185 155.279,77.185 155.134 C 77.185 155.072,77.426 154.652,77.721 154.201 C 78.958 152.305,80.754 146.827,80.416 145.979 C 80.351 145.817,80.291 145.763,80.281 145.859 M62.947 163.328 C 63.521 163.374,64.461 163.374,65.036 163.328 C 65.610 163.283,65.140 163.246,63.991 163.246 C 62.842 163.246,62.372 163.283,62.947 163.328 " stroke="none" fill="#64d393" fill-rule="evenodd"></path><path id="path4" d="M60.301 62.339 C 59.541 62.490,58.848 62.688,58.761 62.780 C 58.675 62.871,58.802 62.891,59.043 62.823 C 59.594 62.669,62.489 62.251,63.661 62.157 C 64.145 62.118,63.898 62.081,63.112 62.075 C 62.325 62.069,61.061 62.188,60.301 62.339 M66.428 62.091 C 66.479 62.135,67.361 62.223,68.389 62.288 C 69.441 62.354,70.018 62.329,69.709 62.231 C 69.170 62.059,66.248 61.935,66.428 62.091 M70.387 62.530 C 70.437 62.573,70.825 62.672,71.248 62.750 C 71.789 62.849,71.920 62.827,71.688 62.675 C 71.390 62.479,70.169 62.344,70.387 62.530 M55.745 63.551 C 55.468 63.671,55.427 63.740,55.635 63.740 C 55.816 63.740,56.163 63.655,56.405 63.551 C 56.682 63.432,56.722 63.362,56.515 63.362 C 56.333 63.362,55.987 63.447,55.745 63.551 M73.447 63.421 C 73.447 63.470,73.892 63.662,74.437 63.847 C 75.622 64.251,75.749 64.132,74.630 63.664 C 73.834 63.332,73.447 63.252,73.447 63.421 M47.499 67.819 C 46.471 68.594,45.283 69.608,44.860 70.073 L 44.090 70.918 44.965 70.148 C 45.446 69.725,45.892 69.323,45.955 69.254 C 46.106 69.090,48.878 67.033,49.400 66.698 C 49.624 66.554,49.709 66.430,49.588 66.423 C 49.467 66.416,48.527 67.044,47.499 67.819 M79.384 66.615 C 79.384 66.744,79.497 66.850,79.634 66.850 C 79.771 66.850,80.833 67.765,81.994 68.884 C 83.155 70.003,83.914 70.671,83.681 70.368 C 82.566 68.922,79.384 66.143,79.384 66.615 M84.333 71.469 C 84.553 71.712,84.778 71.865,84.833 71.810 C 84.952 71.690,84.326 71.028,84.094 71.028 C 84.006 71.028,84.114 71.227,84.333 71.469 M42.712 72.347 C 42.561 72.589,42.513 72.787,42.606 72.787 C 42.699 72.787,42.899 72.589,43.050 72.347 C 43.201 72.106,43.248 71.908,43.155 71.908 C 43.062 71.908,42.863 72.106,42.712 72.347 M85.519 73.090 C 85.658 73.257,86.263 74.271,86.865 75.344 C 87.467 76.417,87.960 77.175,87.960 77.027 C 87.960 76.880,87.763 76.409,87.521 75.982 C 87.279 75.556,86.892 74.873,86.662 74.467 C 85.907 73.135,85.658 72.787,85.462 72.787 C 85.355 72.787,85.381 72.924,85.519 73.090 M41.135 74.494 C 40.238 75.868,38.673 78.768,38.773 78.869 C 38.825 78.921,39.189 78.341,39.581 77.580 C 39.974 76.818,40.679 75.627,41.149 74.931 C 41.620 74.236,41.930 73.668,41.838 73.670 C 41.746 73.671,41.430 74.042,41.135 74.494 M61.132 75.646 C 60.346 75.867,59.390 76.145,59.007 76.265 C 57.733 76.666,55.285 78.246,54.109 79.427 C 52.024 81.522,51.347 82.734,50.133 86.547 C 49.875 87.355,49.873 91.406,50.130 92.029 C 50.233 92.278,50.261 91.558,50.195 90.369 C 49.859 84.321,53.141 79.469,59.263 76.962 C 63.236 75.335,68.632 75.943,71.818 78.376 C 73.867 79.940,76.526 84.297,76.526 86.089 C 76.526 86.378,76.625 86.676,76.745 86.751 C 76.866 86.826,76.965 87.222,76.965 87.631 C 76.965 88.040,77.064 88.435,77.185 88.510 C 77.786 88.881,76.576 84.458,75.457 82.188 C 72.708 76.614,66.993 74.004,61.132 75.646 M87.960 77.487 C 87.960 77.532,88.171 78.046,88.429 78.629 C 88.848 79.576,89.341 81.267,89.963 83.892 C 90.077 84.376,90.292 85.563,90.440 86.531 C 90.639 87.834,90.726 88.088,90.775 87.511 C 90.811 87.082,90.631 85.845,90.376 84.762 C 90.121 83.679,89.827 82.397,89.722 81.913 C 89.308 79.991,87.960 76.606,87.960 77.487 M38.373 79.604 C 38.290 79.864,38.272 80.127,38.333 80.187 C 38.393 80.248,38.510 80.084,38.593 79.824 C 38.675 79.564,38.693 79.302,38.633 79.241 C 38.572 79.181,38.455 79.344,38.373 79.604 M37.933 80.924 C 37.850 81.184,37.832 81.446,37.893 81.506 C 37.953 81.567,38.070 81.404,38.153 81.143 C 38.235 80.883,38.253 80.621,38.193 80.561 C 38.133 80.500,38.015 80.663,37.933 80.924 M37.104 83.695 C 37.016 83.783,36.954 84.309,36.967 84.863 L 36.992 85.871 37.186 84.882 C 37.393 83.830,37.366 83.433,37.104 83.695 M36.639 88.345 C 36.567 89.404,36.593 90.863,36.697 91.589 C 36.858 92.712,36.890 92.425,36.915 89.665 C 36.947 86.014,36.835 85.476,36.639 88.345 M90.848 89.720 C 90.834 90.506,90.925 92.040,91.050 93.128 C 91.203 94.461,91.206 95.717,91.059 96.976 C 90.938 98.004,90.824 103.249,90.804 108.631 C 90.758 120.983,90.640 122.438,89.474 125.066 C 89.246 125.579,89.060 126.088,89.060 126.197 C 89.060 127.168,85.426 130.955,83.414 132.080 C 80.197 133.879,78.834 134.144,71.688 134.362 C 66.195 134.530,65.563 134.583,63.551 135.050 C 62.547 135.283,62.363 135.347,60.803 136.005 C 55.243 138.348,50.705 143.500,50.812 147.348 C 50.830 147.993,51.001 147.653,51.480 146.014 C 53.612 138.723,60.872 135.027,73.071 135.021 C 80.701 135.018,85.137 133.031,88.240 128.227 C 90.792 124.278,90.983 123.101,91.021 111.076 C 91.036 106.313,91.101 102.331,91.165 102.228 C 91.366 101.903,91.287 90.773,91.075 89.500 L 90.874 88.290 90.848 89.720 M77.421 89.982 C 77.412 90.428,77.504 90.854,77.625 90.929 C 77.890 91.093,77.890 90.227,77.625 89.610 C 77.473 89.255,77.433 89.327,77.421 89.982 M50.361 93.146 C 50.363 93.499,50.465 93.936,50.589 94.118 C 50.750 94.354,50.772 94.198,50.666 93.568 C 50.484 92.477,50.356 92.301,50.361 93.146 M36.976 94.338 C 36.962 95.124,37.046 95.915,37.163 96.097 C 37.425 96.502,37.429 95.650,37.173 94.008 L 37.002 92.908 36.976 94.338 M50.801 95.039 C 50.807 95.591,51.230 96.046,51.234 95.505 C 51.235 95.240,51.138 94.962,51.017 94.887 C 50.896 94.813,50.799 94.881,50.801 95.039 M37.402 97.196 C 37.395 97.499,37.486 97.894,37.603 98.076 C 37.883 98.509,37.883 97.737,37.603 97.086 C 37.430 96.684,37.413 96.693,37.402 97.196 M51.687 97.306 C 51.687 97.427,51.880 97.774,52.117 98.076 C 52.353 98.378,52.547 98.527,52.547 98.406 C 52.547 98.285,52.353 97.938,52.117 97.636 C 51.880 97.334,51.687 97.185,51.687 97.306 M37.823 98.839 C 37.823 99.358,38.586 101.528,39.295 103.027 C 42.877 110.599,50.421 116.258,58.604 117.512 C 66.294 118.690,69.260 117.976,70.949 114.539 C 72.009 112.384,72.129 111.995,72.112 110.765 C 72.085 108.742,71.720 108.557,71.703 110.558 C 71.655 116.194,67.717 118.220,59.426 116.875 C 53.683 115.944,49.857 114.215,45.739 110.690 C 42.134 107.604,38.288 101.656,38.266 99.133 C 38.264 98.929,38.164 98.700,38.043 98.626 C 37.922 98.551,37.823 98.647,37.823 98.839 M52.793 99.120 C 54.170 100.947,57.247 102.962,59.058 103.224 L 59.923 103.349 58.933 103.056 C 56.832 102.435,54.185 100.711,53.326 99.405 C 53.084 99.038,52.800 98.737,52.694 98.736 C 52.589 98.736,52.633 98.909,52.793 99.120 M60.803 103.586 C 61.917 103.816,62.817 103.806,61.902 103.573 C 61.539 103.481,60.946 103.405,60.583 103.405 C 60.028 103.404,60.063 103.433,60.803 103.586 M63.441 103.923 C 64.475 104.088,67.027 104.122,66.785 103.968 C 66.639 103.876,65.728 103.812,64.761 103.827 C 63.793 103.841,63.200 103.885,63.441 103.923 M70.375 106.487 C 70.775 107.062,71.139 107.532,71.183 107.532 C 71.359 107.532,70.715 106.535,70.198 106.005 C 69.787 105.585,69.832 105.706,70.375 106.487 M77.573 110.280 C 77.483 110.764,77.422 112.446,77.436 114.019 C 77.462 116.831,77.465 116.851,77.657 115.228 C 77.897 113.195,77.824 108.919,77.573 110.280 M77.099 118.110 C 77.046 118.279,76.939 118.704,76.861 119.055 C 76.784 119.406,76.419 119.975,76.050 120.319 C 75.681 120.664,75.475 120.946,75.593 120.946 C 76.253 120.946,77.736 118.344,77.316 117.924 C 77.250 117.858,77.152 117.942,77.099 118.110 M64.651 121.171 C 64.316 121.282,64.704 121.305,65.640 121.229 C 66.487 121.161,67.221 121.069,67.271 121.025 C 67.453 120.867,65.188 120.993,64.651 121.171 M62.342 121.605 C 62.065 121.724,62.024 121.794,62.232 121.794 C 62.413 121.794,62.760 121.709,63.002 121.605 C 63.279 121.486,63.320 121.416,63.112 121.416 C 62.930 121.416,62.584 121.501,62.342 121.605 M60.473 122.045 C 60.020 122.190,60.001 122.224,60.363 122.240 C 60.605 122.250,60.951 122.162,61.132 122.045 C 61.518 121.796,61.250 121.796,60.473 122.045 M58.604 122.485 C 58.043 122.726,58.621 122.726,59.373 122.485 C 59.815 122.343,59.837 122.308,59.483 122.302 C 59.241 122.299,58.846 122.381,58.604 122.485 M54.975 123.731 C 54.316 123.956,53.216 124.487,53.216 124.581 C 53.216 124.681,55.455 123.837,55.617 123.676 C 55.734 123.558,55.399 123.587,54.975 123.731 M50.735 125.910 C 50.044 126.343,49.478 126.745,49.478 126.803 C 49.478 126.861,49.601 126.832,49.753 126.738 C 49.904 126.644,50.566 126.242,51.224 125.845 C 51.882 125.448,52.324 125.124,52.207 125.124 C 52.089 125.124,51.427 125.478,50.735 125.910 M46.426 129.104 C 45.896 129.576,45.550 129.959,45.656 129.956 C 45.883 129.949,47.568 128.417,47.461 128.315 C 47.421 128.277,46.955 128.632,46.426 129.104 M44.438 131.014 C 44.267 131.221,43.928 131.614,43.685 131.886 C 43.442 132.158,43.335 132.372,43.447 132.362 C 43.710 132.338,45.192 130.619,44.940 130.630 C 44.836 130.634,44.610 130.807,44.438 131.014 M41.836 134.361 C 41.443 134.962,41.121 135.514,41.121 135.587 C 41.121 135.661,40.924 135.998,40.683 136.336 C 40.132 137.111,38.665 140.515,38.760 140.800 C 38.799 140.917,39.116 140.282,39.465 139.390 C 39.813 138.498,40.265 137.471,40.470 137.108 C 41.392 135.473,41.906 134.638,42.400 133.975 C 42.693 133.582,42.847 133.262,42.742 133.264 C 42.637 133.266,42.229 133.760,41.836 134.361 M85.275 139.818 C 85.068 139.900,85.825 139.967,86.958 139.967 C 88.091 139.967,88.904 139.894,88.764 139.805 C 88.449 139.605,85.787 139.614,85.275 139.818 M90.049 140.488 C 90.412 140.713,90.751 140.860,90.803 140.814 C 90.955 140.681,90.079 140.091,89.720 140.085 C 89.538 140.082,89.687 140.263,90.049 140.488 M82.103 141.675 C 81.101 142.754,80.070 144.757,80.724 144.352 C 80.834 144.285,80.924 144.085,80.924 143.908 C 80.924 143.442,81.922 141.932,82.495 141.530 C 82.765 141.341,82.936 141.136,82.874 141.075 C 82.813 141.013,82.466 141.283,82.103 141.675 M38.413 141.480 C 38.330 141.696,38.269 142.037,38.277 142.239 C 38.286 142.482,38.362 142.427,38.503 142.075 C 38.620 141.783,38.681 141.442,38.639 141.316 C 38.598 141.191,38.496 141.265,38.413 141.480 M91.699 141.481 C 91.699 141.566,91.897 141.847,92.139 142.107 C 92.380 142.366,92.578 142.477,92.578 142.352 C 92.578 142.227,92.380 141.945,92.139 141.726 C 91.897 141.507,91.699 141.397,91.699 141.481 M38.070 142.936 C 38.052 143.117,37.982 143.513,37.915 143.815 C 37.809 144.290,37.827 144.312,38.042 143.974 C 38.179 143.759,38.249 143.363,38.197 143.094 C 38.145 142.826,38.088 142.754,38.070 142.936 M92.969 143.361 C 93.173 143.716,93.383 143.964,93.436 143.911 C 93.571 143.776,92.981 142.716,92.771 142.716 C 92.676 142.716,92.766 143.006,92.969 143.361 M93.553 147.028 C 93.545 148.530,93.618 149.633,93.715 149.481 C 93.938 149.129,93.954 144.536,93.733 144.399 C 93.642 144.344,93.561 145.526,93.553 147.028 M80.054 145.959 C 79.900 146.655,79.635 147.808,79.465 148.521 C 79.192 149.670,79.202 150.534,79.480 149.729 C 79.591 149.407,80.249 146.336,80.429 145.300 C 80.623 144.179,80.337 144.684,80.054 145.959 M37.530 145.281 C 37.449 145.362,37.392 145.733,37.403 146.106 L 37.423 146.784 37.635 146.045 C 37.848 145.307,37.806 145.005,37.530 145.281 M37.081 148.681 C 36.891 149.628,36.935 151.311,37.163 151.842 C 37.287 152.129,37.358 151.540,37.368 150.137 C 37.384 147.896,37.311 147.528,37.081 148.681 M50.463 149.604 C 50.382 150.248,50.414 151.213,50.533 151.748 C 50.730 152.633,50.752 152.527,50.774 150.577 C 50.800 148.193,50.684 147.831,50.463 149.604 M93.011 150.968 C 92.520 152.735,92.520 152.739,92.739 152.501 C 93.044 152.171,93.526 150.505,93.413 150.169 C 93.359 150.006,93.178 150.366,93.011 150.968 M77.757 153.073 C 77.562 153.463,77.446 153.825,77.498 153.877 C 77.550 153.929,77.756 153.656,77.955 153.271 C 78.154 152.886,78.271 152.524,78.214 152.467 C 78.157 152.410,77.952 152.683,77.757 153.073 M92.275 153.381 C 92.185 153.744,92.019 154.213,91.905 154.423 C 91.792 154.633,91.699 154.906,91.699 155.030 C 91.699 155.801,89.071 160.974,87.565 163.167 C 82.986 169.834,76.689 174.233,69.304 175.925 C 67.801 176.269,61.117 176.278,59.558 175.938 C 58.100 175.620,56.762 175.264,56.185 175.041 C 55.943 174.948,55.300 174.745,54.755 174.592 C 50.486 173.384,45.386 169.933,42.419 166.245 C 40.676 164.078,38.270 158.728,38.259 156.994 C 38.258 156.700,38.152 156.311,38.024 156.130 C 37.150 154.888,38.864 160.921,40.047 163.250 C 45.996 174.960,62.861 180.533,74.972 174.790 C 79.154 172.807,84.640 168.305,86.859 165.036 C 87.269 164.431,87.685 163.903,87.783 163.863 C 87.880 163.823,87.960 163.692,87.960 163.573 C 87.960 163.453,88.269 162.908,88.646 162.360 C 89.369 161.309,91.479 156.988,91.479 156.558 C 91.479 156.330,91.814 155.487,92.400 154.238 C 92.520 153.984,92.577 153.539,92.528 153.249 C 92.443 152.750,92.429 152.758,92.275 153.381 M37.405 154.193 C 37.393 154.639,37.482 155.065,37.603 155.140 C 37.857 155.297,37.857 154.725,37.603 153.931 C 37.445 153.437,37.425 153.464,37.405 154.193 M50.801 153.863 C 50.802 154.082,50.900 154.409,51.017 154.590 C 51.184 154.848,51.231 154.791,51.234 154.329 C 51.235 154.003,51.138 153.676,51.017 153.601 C 50.896 153.526,50.799 153.644,50.801 153.863 M75.917 156.075 C 74.821 157.569,73.496 159.002,72.128 160.174 C 71.583 160.640,71.367 160.904,71.646 160.760 C 72.632 160.252,76.053 156.575,76.721 155.305 C 77.144 154.500,76.903 154.731,75.917 156.075 M51.237 155.554 C 51.237 155.735,51.336 155.945,51.457 156.020 C 51.578 156.095,51.677 156.007,51.677 155.826 C 51.677 155.644,51.578 155.435,51.457 155.360 C 51.336 155.285,51.237 155.373,51.237 155.554 M52.352 157.614 C 52.916 158.366,55.075 160.528,55.261 160.528 C 55.365 160.528,54.921 160.043,54.273 159.452 C 53.625 158.860,52.957 158.117,52.789 157.802 C 52.620 157.487,52.388 157.229,52.272 157.229 C 52.157 157.229,52.193 157.402,52.352 157.614 M55.635 160.626 C 55.635 160.687,55.932 160.890,56.295 161.078 C 56.658 161.265,56.954 161.369,56.954 161.309 C 56.954 161.248,56.658 161.045,56.295 160.858 C 55.932 160.670,55.635 160.566,55.635 160.626 M58.494 162.067 C 58.675 162.184,58.972 162.280,59.153 162.280 C 59.447 162.280,59.447 162.257,59.153 162.067 C 58.972 161.950,58.675 161.854,58.494 161.854 C 58.200 161.854,58.200 161.878,58.494 162.067 M68.719 162.067 C 68.644 162.188,68.732 162.287,68.913 162.287 C 69.094 162.287,69.304 162.188,69.379 162.067 C 69.454 161.946,69.366 161.847,69.185 161.847 C 69.003 161.847,68.794 161.946,68.719 162.067 M61.572 162.947 C 61.754 163.064,62.051 163.160,62.232 163.160 C 62.525 163.160,62.525 163.136,62.232 162.947 C 62.051 162.829,61.754 162.734,61.572 162.734 C 61.279 162.734,61.279 162.757,61.572 162.947 M65.750 162.947 C 65.457 163.136,65.457 163.160,65.750 163.160 C 65.932 163.160,66.229 163.064,66.410 162.947 C 66.703 162.757,66.703 162.734,66.410 162.734 C 66.229 162.734,65.932 162.829,65.750 162.947 " stroke="none" fill="#27c66b" fill-rule="evenodd"></path></g></svg>